%TF.GenerationSoftware,KiCad,Pcbnew,8.0.8*%
%TF.CreationDate,2025-02-15T17:25:52+01:00*%
%TF.ProjectId,Weathernode,57656174-6865-4726-9e6f-64652e6b6963,rev?*%
%TF.SameCoordinates,Original*%
%TF.FileFunction,Soldermask,Top*%
%TF.FilePolarity,Negative*%
%FSLAX46Y46*%
G04 Gerber Fmt 4.6, Leading zero omitted, Abs format (unit mm)*
G04 Created by KiCad (PCBNEW 8.0.8) date 2025-02-15 17:25:52*
%MOMM*%
%LPD*%
G01*
G04 APERTURE LIST*
G04 Aperture macros list*
%AMRoundRect*
0 Rectangle with rounded corners*
0 $1 Rounding radius*
0 $2 $3 $4 $5 $6 $7 $8 $9 X,Y pos of 4 corners*
0 Add a 4 corners polygon primitive as box body*
4,1,4,$2,$3,$4,$5,$6,$7,$8,$9,$2,$3,0*
0 Add four circle primitives for the rounded corners*
1,1,$1+$1,$2,$3*
1,1,$1+$1,$4,$5*
1,1,$1+$1,$6,$7*
1,1,$1+$1,$8,$9*
0 Add four rect primitives between the rounded corners*
20,1,$1+$1,$2,$3,$4,$5,0*
20,1,$1+$1,$4,$5,$6,$7,0*
20,1,$1+$1,$6,$7,$8,$9,0*
20,1,$1+$1,$8,$9,$2,$3,0*%
G04 Aperture macros list end*
%ADD10RoundRect,0.250000X-0.312500X-0.625000X0.312500X-0.625000X0.312500X0.625000X-0.312500X0.625000X0*%
%ADD11R,2.500000X1.000000*%
%ADD12R,1.000000X1.800000*%
%ADD13RoundRect,0.162500X-0.837500X-0.162500X0.837500X-0.162500X0.837500X0.162500X-0.837500X0.162500X0*%
%ADD14RoundRect,0.150000X-0.512500X-0.150000X0.512500X-0.150000X0.512500X0.150000X-0.512500X0.150000X0*%
%ADD15RoundRect,0.250000X-0.325000X-0.650000X0.325000X-0.650000X0.325000X0.650000X-0.325000X0.650000X0*%
%ADD16RoundRect,0.150000X0.150000X-0.512500X0.150000X0.512500X-0.150000X0.512500X-0.150000X-0.512500X0*%
%ADD17RoundRect,0.250000X0.625000X-0.375000X0.625000X0.375000X-0.625000X0.375000X-0.625000X-0.375000X0*%
%ADD18RoundRect,0.150000X0.150000X-0.587500X0.150000X0.587500X-0.150000X0.587500X-0.150000X-0.587500X0*%
%ADD19C,0.650000*%
%ADD20R,0.600000X1.450000*%
%ADD21R,0.300000X1.450000*%
%ADD22O,1.000000X2.100000*%
%ADD23O,1.000000X1.600000*%
%ADD24RoundRect,0.150000X-0.825000X-0.150000X0.825000X-0.150000X0.825000X0.150000X-0.825000X0.150000X0*%
%ADD25RoundRect,0.062500X-0.062500X0.325000X-0.062500X-0.325000X0.062500X-0.325000X0.062500X0.325000X0*%
%ADD26R,1.200000X0.800000*%
%ADD27R,2.160000X1.120000*%
%ADD28R,1.700000X1.700000*%
%ADD29O,1.700000X1.700000*%
%ADD30RoundRect,0.225000X-0.225000X-0.375000X0.225000X-0.375000X0.225000X0.375000X-0.225000X0.375000X0*%
%ADD31R,1.700000X1.000000*%
%ADD32RoundRect,0.250000X2.500000X-0.250000X2.500000X0.250000X-2.500000X0.250000X-2.500000X-0.250000X0*%
%ADD33RoundRect,0.250000X1.250000X-0.550000X1.250000X0.550000X-1.250000X0.550000X-1.250000X-0.550000X0*%
G04 APERTURE END LIST*
D10*
%TO.C,R12*%
X103247000Y-70104000D03*
X106172000Y-70104000D03*
%TD*%
%TO.C,R13*%
X103198000Y-75184000D03*
X106123000Y-75184000D03*
%TD*%
%TO.C,R8*%
X103247000Y-59944000D03*
X106172000Y-59944000D03*
%TD*%
D11*
%TO.C,U3*%
X81066000Y-48006000D03*
X81066000Y-50006000D03*
X81066000Y-52006000D03*
X81066000Y-54006000D03*
X81066000Y-56006000D03*
X81066000Y-58006000D03*
X81066000Y-60006000D03*
X81066000Y-62006000D03*
D12*
X83666000Y-63506000D03*
X85666000Y-63506000D03*
X87666000Y-63506000D03*
X89666000Y-63506000D03*
X91666000Y-63506000D03*
X93666000Y-63506000D03*
D11*
X96266000Y-62006000D03*
X96266000Y-60006000D03*
X96266000Y-58006000D03*
X96266000Y-56006000D03*
X96266000Y-54006000D03*
X96266000Y-52006000D03*
X96266000Y-50006000D03*
X96266000Y-48006000D03*
%TD*%
D13*
%TO.C,U5*%
X91883500Y-86614000D03*
X91883500Y-87564000D03*
X91883500Y-88514000D03*
X95303500Y-88514000D03*
X95303500Y-86614000D03*
%TD*%
D14*
%TO.C,U4*%
X92467000Y-82804000D03*
X92467000Y-83754000D03*
X92467000Y-84704000D03*
X94742000Y-84704000D03*
X94742000Y-82804000D03*
%TD*%
D10*
%TO.C,R2*%
X99121500Y-43180000D03*
X102046500Y-43180000D03*
%TD*%
%TO.C,R11*%
X103247000Y-67564000D03*
X106172000Y-67564000D03*
%TD*%
%TO.C,R14*%
X103198000Y-72644000D03*
X106123000Y-72644000D03*
%TD*%
D15*
%TO.C,C7*%
X103173000Y-95504000D03*
X106123000Y-95504000D03*
%TD*%
D16*
%TO.C,Q2*%
X96586000Y-68701500D03*
X98486000Y-68701500D03*
X97536000Y-66426500D03*
%TD*%
D17*
%TO.C,D1*%
X85598000Y-98428000D03*
X85598000Y-95628000D03*
%TD*%
D18*
%TO.C,Q3*%
X87950000Y-83663000D03*
X89850000Y-83663000D03*
X88900000Y-81788000D03*
%TD*%
D15*
%TO.C,C2*%
X103173000Y-82804000D03*
X106123000Y-82804000D03*
%TD*%
%TO.C,C6*%
X103173000Y-92964000D03*
X106123000Y-92964000D03*
%TD*%
D10*
%TO.C,R15*%
X103198000Y-77724000D03*
X106123000Y-77724000D03*
%TD*%
D19*
%TO.C,J2*%
X90740000Y-92904000D03*
X96520000Y-92904000D03*
D20*
X90380000Y-91459000D03*
X91180000Y-91459000D03*
D21*
X92380000Y-91459000D03*
X93380000Y-91459000D03*
X93880000Y-91459000D03*
X94880000Y-91459000D03*
D20*
X96080000Y-91459000D03*
X96880000Y-91459000D03*
X96880000Y-91459000D03*
X96080000Y-91459000D03*
D21*
X95380000Y-91459000D03*
X94380000Y-91459000D03*
X92880000Y-91459000D03*
X91880000Y-91459000D03*
D20*
X91180000Y-91459000D03*
X90380000Y-91459000D03*
D22*
X89310000Y-92374000D03*
D23*
X89310000Y-96554000D03*
D22*
X97950000Y-92374000D03*
D23*
X97950000Y-96554000D03*
%TD*%
D15*
%TO.C,C3*%
X103173000Y-85344000D03*
X106123000Y-85344000D03*
%TD*%
D24*
%TO.C,U2*%
X92456000Y-71120000D03*
X92456000Y-72390000D03*
X92456000Y-73660000D03*
X92456000Y-74930000D03*
X92456000Y-76200000D03*
X92456000Y-77470000D03*
X92456000Y-78740000D03*
X92456000Y-80010000D03*
X97406000Y-80010000D03*
X97406000Y-78740000D03*
X97406000Y-77470000D03*
X97406000Y-76200000D03*
X97406000Y-74930000D03*
X97406000Y-73660000D03*
X97406000Y-72390000D03*
X97406000Y-71120000D03*
%TD*%
D15*
%TO.C,C1*%
X103173000Y-80264000D03*
X106123000Y-80264000D03*
%TD*%
D25*
%TO.C,U1*%
X82492000Y-95986500D03*
X81992000Y-95986500D03*
X81492000Y-95986500D03*
X80992000Y-95986500D03*
X80992000Y-97961500D03*
X81492000Y-97961500D03*
X81992000Y-97961500D03*
X82492000Y-97961500D03*
D26*
X81742000Y-96974000D03*
%TD*%
D10*
%TO.C,R9*%
X103247000Y-62484000D03*
X106172000Y-62484000D03*
%TD*%
D27*
%TO.C,ID0*%
X81217000Y-68072000D03*
X81217000Y-70612000D03*
X87947000Y-70612000D03*
X87947000Y-68072000D03*
%TD*%
D10*
%TO.C,R3*%
X103185500Y-52324000D03*
X106110500Y-52324000D03*
%TD*%
D28*
%TO.C,BMP280*%
X105156000Y-48768000D03*
D29*
X105156000Y-46228000D03*
X105156000Y-43688000D03*
X105156000Y-41148000D03*
%TD*%
D15*
%TO.C,C5*%
X103173000Y-90424000D03*
X106123000Y-90424000D03*
%TD*%
D30*
%TO.C,D2*%
X80646000Y-81788000D03*
X83946000Y-81788000D03*
%TD*%
D31*
%TO.C,RESET1*%
X80924000Y-75062000D03*
X87224000Y-75062000D03*
X80924000Y-78862000D03*
X87224000Y-78862000D03*
%TD*%
D10*
%TO.C,R10*%
X103247000Y-65024000D03*
X106172000Y-65024000D03*
%TD*%
%TO.C,R1*%
X99121500Y-40640000D03*
X102046500Y-40640000D03*
%TD*%
D15*
%TO.C,C4*%
X103173000Y-87884000D03*
X106123000Y-87884000D03*
%TD*%
D16*
%TO.C,Q1*%
X92136000Y-68701500D03*
X94036000Y-68701500D03*
X93086000Y-66426500D03*
%TD*%
D10*
%TO.C,R4*%
X103247000Y-54864000D03*
X106172000Y-54864000D03*
%TD*%
%TO.C,R5*%
X103247000Y-57404000D03*
X106172000Y-57404000D03*
%TD*%
D15*
%TO.C,C8*%
X103173000Y-98044000D03*
X106123000Y-98044000D03*
%TD*%
D14*
%TO.C,U6*%
X97039000Y-82804000D03*
X97039000Y-83754000D03*
X97039000Y-84704000D03*
X99314000Y-84704000D03*
X99314000Y-82804000D03*
%TD*%
D32*
%TO.C,BATT0*%
X84836000Y-90506000D03*
X84836000Y-88506000D03*
D33*
X82586000Y-92906000D03*
X82586000Y-86106000D03*
%TD*%
M02*
