M48
; DRILL file {KiCad 8.0.8} date 2025-02-15T17:25:47+0100
; FORMAT={-:-/ absolute / inch / decimal}
; #@! TF.CreationDate,2025-02-15T17:25:47+01:00
; #@! TF.GenerationSoftware,Kicad,Pcbnew,8.0.8
; #@! TF.FileFunction,Plated,1,2,PTH
FMAT,2
INCH
; #@! TA.AperFunction,Plated,PTH,ViaDrill
T1C0.0157
; #@! TA.AperFunction,Plated,PTH,ComponentDrill
T2C0.0236
; #@! TA.AperFunction,Plated,PTH,ComponentDrill
T3C0.0394
%
G90
G05
T1
X3.228Y-3.897
X3.2502Y-2.4855
X3.2764Y-3.8378
X3.3051Y-2.4408
X3.4286Y-3.8751
X3.4487Y-2.297
X3.5313Y-2.2138
X3.5534Y-3.4406
X3.5867Y-2.7721
X3.625Y-3.5485
X3.6329Y-3.2149
X3.6462Y-3.3704
X3.6801Y-3.5353
X3.6936Y-2.3393
X3.7166Y-2.0361
X3.7167Y-2.1047
X3.7196Y-3.5226
X3.724Y-3.1593
X3.7623Y-3.1129
X3.7745Y-3.3595
X3.8044Y-2.572
X3.8643Y-2.7625
X3.9345Y-3.019
X3.946Y-3.2926
X4.0226Y-2.7022
X4.1103Y-2.9649
X4.1124Y-2.5258
X4.1304Y-2.0634
X4.1321Y-2.5649
X4.1327Y-2.2591
X4.1329Y-2.8049
X4.1339Y-2.7634
X4.1384Y-3.0064
T3
X4.14Y-1.62
X4.14Y-1.72
X4.14Y-1.82
X4.14Y-1.92
T2
G00X3.5161Y-3.6151
M15
G01X3.5161Y-3.6584
M16
G05
G00X3.5161Y-3.7895
M15
G01X3.5161Y-3.8131
M16
G05
G00X3.8563Y-3.6151
M15
G01X3.8563Y-3.6584
M16
G05
G00X3.8563Y-3.7895
M15
G01X3.8563Y-3.8131
M16
G05
M30
