%TF.GenerationSoftware,KiCad,Pcbnew,8.0.8*%
%TF.CreationDate,2025-02-15T17:37:18+01:00*%
%TF.ProjectId,Weathernode,57656174-6865-4726-9e6f-64652e6b6963,rev?*%
%TF.SameCoordinates,Original*%
%TF.FileFunction,Component,L1,Top*%
%TF.FilePolarity,Positive*%
%FSLAX46Y46*%
G04 Gerber Fmt 4.6, Leading zero omitted, Abs format (unit mm)*
G04 Created by KiCad (PCBNEW 8.0.8) date 2025-02-15 17:37:18*
%MOMM*%
%LPD*%
G01*
G04 APERTURE LIST*
%TA.AperFunction,ComponentMain*%
%ADD10C,0.300000*%
%TD*%
%TA.AperFunction,ComponentOutline,Courtyard*%
%ADD11C,0.100000*%
%TD*%
%TA.AperFunction,ComponentPin*%
%ADD12P,0.360000X4X0.000000*%
%TD*%
%TA.AperFunction,ComponentPin*%
%ADD13C,0.100000*%
%TD*%
G04 APERTURE END LIST*
D10*
%TO.C,R12*%
%TO.CFtp,R_1206_3216Metric*%
%TO.CVal,2k*%
%TO.CLbN,Resistor_SMD*%
%TO.CMnt,SMD*%
%TO.CRot,0*%
X104709500Y-70104000D03*
D11*
X106984500Y-68989000D02*
X106984500Y-71219000D01*
X102434500Y-71219000D01*
X102434500Y-68989000D01*
X106984500Y-68989000D01*
D12*
%TO.P,R12,1,1*%
X103247000Y-70104000D03*
D13*
%TO.P,R12,2,2*%
X106172000Y-70104000D03*
%TD*%
D10*
%TO.C,R13*%
%TO.CFtp,R_1206_3216Metric*%
%TO.CVal,5.1k*%
%TO.CLbN,Resistor_SMD*%
%TO.CMnt,SMD*%
%TO.CRot,0*%
X104660500Y-75184000D03*
D11*
X106935500Y-74069000D02*
X106935500Y-76299000D01*
X102385500Y-76299000D01*
X102385500Y-74069000D01*
X106935500Y-74069000D01*
D12*
%TO.P,R13,1,1*%
X103198000Y-75184000D03*
D13*
%TO.P,R13,2,2*%
X106123000Y-75184000D03*
%TD*%
D10*
%TO.C,R8*%
%TO.CFtp,R_1206_3216Metric*%
%TO.CVal,12k*%
%TO.CLbN,Resistor_SMD*%
%TO.CMnt,SMD*%
%TO.CRot,0*%
X104709500Y-59944000D03*
D11*
X106984500Y-58829000D02*
X106984500Y-61059000D01*
X102434500Y-61059000D01*
X102434500Y-58829000D01*
X106984500Y-58829000D01*
D12*
%TO.P,R8,1,1*%
X103247000Y-59944000D03*
D13*
%TO.P,R8,2,2*%
X106172000Y-59944000D03*
%TD*%
D10*
%TO.C,U3*%
%TO.CFtp,ESP-12E*%
%TO.CVal,ESP-12E*%
%TO.CLbN,RF_Module*%
%TO.CMnt,SMD*%
%TO.CRot,0*%
X88666000Y-51506000D03*
D11*
X97711000Y-39311000D02*
X97711000Y-64601000D01*
X79621000Y-64601000D01*
X79621000Y-39311000D01*
X97711000Y-39311000D01*
D12*
%TO.P,U3,1,~{RST}*%
X81066000Y-48006000D03*
D13*
%TO.P,U3,2,ADC*%
X81066000Y-50006000D03*
%TO.P,U3,3,EN*%
X81066000Y-52006000D03*
%TO.P,U3,4,GPIO16*%
X81066000Y-54006000D03*
%TO.P,U3,5,GPIO14*%
X81066000Y-56006000D03*
%TO.P,U3,6,GPIO12*%
X81066000Y-58006000D03*
%TO.P,U3,7,GPIO13*%
X81066000Y-60006000D03*
%TO.P,U3,8,VCC*%
X81066000Y-62006000D03*
%TO.P,U3,9,CS0*%
X83666000Y-63506000D03*
%TO.P,U3,10,MISO*%
X85666000Y-63506000D03*
%TO.P,U3,11,GPIO9*%
X87666000Y-63506000D03*
%TO.P,U3,12,GPIO10*%
X89666000Y-63506000D03*
%TO.P,U3,13,MOSI*%
X91666000Y-63506000D03*
%TO.P,U3,14,SCLK*%
X93666000Y-63506000D03*
%TO.P,U3,15,GND*%
X96266000Y-62006000D03*
%TO.P,U3,16,GPIO15*%
X96266000Y-60006000D03*
%TO.P,U3,17,GPIO2*%
X96266000Y-58006000D03*
%TO.P,U3,18,GPIO0*%
X96266000Y-56006000D03*
%TO.P,U3,19,GPIO4*%
X96266000Y-54006000D03*
%TO.P,U3,20,GPIO5*%
X96266000Y-52006000D03*
%TO.P,U3,21,GPIO3/RXD*%
X96266000Y-50006000D03*
%TO.P,U3,22,GPIO1/TXD*%
X96266000Y-48006000D03*
%TD*%
D10*
%TO.C,U5*%
%TO.CFtp,TSOT-23-5_HandSoldering*%
%TO.CVal,MCP73831*%
%TO.CLbN,Package_TO_SOT_SMD*%
%TO.CMnt,SMD*%
%TO.CRot,0*%
X93593500Y-87564000D03*
D11*
X96548500Y-85869000D02*
X96548500Y-89259000D01*
X90638500Y-89259000D01*
X90638500Y-85869000D01*
X96548500Y-85869000D01*
D12*
%TO.P,U5,1,STAT*%
X91883500Y-86614000D03*
D13*
%TO.P,U5,2,VSS*%
X91883500Y-87564000D03*
%TO.P,U5,3,VBAT*%
X91883500Y-88514000D03*
%TO.P,U5,4,VDD*%
X95303500Y-88514000D03*
%TO.P,U5,5,PROG*%
X95303500Y-86614000D03*
%TD*%
D10*
%TO.C,U4*%
%TO.CFtp,SOT-23-5*%
%TO.CVal,AP2112K-3.3*%
%TO.CLbN,Package_TO_SOT_SMD*%
%TO.CMnt,SMD*%
%TO.CRot,0*%
X93604500Y-83754000D03*
D11*
X95649500Y-82059000D02*
X95649500Y-85449000D01*
X91559500Y-85449000D01*
X91559500Y-82059000D01*
X95649500Y-82059000D01*
D12*
%TO.P,U4,1,VIN*%
X92467000Y-82804000D03*
D13*
%TO.P,U4,2,GND*%
X92467000Y-83754000D03*
%TO.P,U4,3,EN*%
X92467000Y-84704000D03*
%TO.P,U4,4,NC*%
X94742000Y-84704000D03*
%TO.P,U4,5,VOUT*%
X94742000Y-82804000D03*
%TD*%
D10*
%TO.C,R2*%
%TO.CFtp,R_1206_3216Metric*%
%TO.CVal,12k*%
%TO.CLbN,Resistor_SMD*%
%TO.CMnt,SMD*%
%TO.CRot,0*%
X100584000Y-43180000D03*
D11*
X102859000Y-42065000D02*
X102859000Y-44295000D01*
X98309000Y-44295000D01*
X98309000Y-42065000D01*
X102859000Y-42065000D01*
D12*
%TO.P,R2,1,1*%
X99121500Y-43180000D03*
D13*
%TO.P,R2,2,2*%
X102046500Y-43180000D03*
%TD*%
D10*
%TO.C,R11*%
%TO.CFtp,R_1206_3216Metric*%
%TO.CVal,2K*%
%TO.CLbN,Resistor_SMD*%
%TO.CMnt,SMD*%
%TO.CRot,0*%
X104709500Y-67564000D03*
D11*
X106984500Y-66449000D02*
X106984500Y-68679000D01*
X102434500Y-68679000D01*
X102434500Y-66449000D01*
X106984500Y-66449000D01*
D12*
%TO.P,R11,1,1*%
X103247000Y-67564000D03*
D13*
%TO.P,R11,2,2*%
X106172000Y-67564000D03*
%TD*%
D10*
%TO.C,R14*%
%TO.CFtp,R_1206_3216Metric*%
%TO.CVal,5.1k*%
%TO.CLbN,Resistor_SMD*%
%TO.CMnt,SMD*%
%TO.CRot,0*%
X104660500Y-72644000D03*
D11*
X106935500Y-71529000D02*
X106935500Y-73759000D01*
X102385500Y-73759000D01*
X102385500Y-71529000D01*
X106935500Y-71529000D01*
D12*
%TO.P,R14,1,1*%
X103198000Y-72644000D03*
D13*
%TO.P,R14,2,2*%
X106123000Y-72644000D03*
%TD*%
D10*
%TO.C,C7*%
%TO.CFtp,C_1206_3216Metric*%
%TO.CVal,100n*%
%TO.CLbN,Capacitor_SMD*%
%TO.CMnt,SMD*%
%TO.CRot,0*%
X104648000Y-95504000D03*
D11*
X106943000Y-94359000D02*
X106943000Y-96649000D01*
X102353000Y-96649000D01*
X102353000Y-94359000D01*
X106943000Y-94359000D01*
D12*
%TO.P,C7,1,1*%
X103173000Y-95504000D03*
D13*
%TO.P,C7,2,2*%
X106123000Y-95504000D03*
%TD*%
D10*
%TO.C,Q2*%
%TO.CFtp,SOT-23-3*%
%TO.CVal,NPN-TRANSISTOR_SOT23*%
%TO.CLbN,Package_TO_SOT_SMD*%
%TO.CMnt,SMD*%
%TO.CRot,90*%
X97536000Y-67564000D03*
D11*
X99231000Y-65519000D02*
X99231000Y-69609000D01*
X95841000Y-69609000D01*
X95841000Y-65519000D01*
X99231000Y-65519000D01*
D12*
%TO.P,Q2,1,B*%
X96586000Y-68701500D03*
D13*
%TO.P,Q2,2,E*%
X98486000Y-68701500D03*
%TO.P,Q2,3,C*%
X97536000Y-66426500D03*
%TD*%
D10*
%TO.C,D1*%
%TO.CFtp,LED_1206_3216Metric*%
%TO.CVal,LED*%
%TO.CLbN,LED_SMD*%
%TO.CMnt,SMD*%
%TO.CRot,90*%
X85598000Y-97028000D03*
D11*
X86713000Y-94753000D02*
X86713000Y-99303000D01*
X84483000Y-99303000D01*
X84483000Y-94753000D01*
X86713000Y-94753000D01*
D12*
%TO.P,D1,1,K*%
X85598000Y-98428000D03*
D13*
%TO.P,D1,2,A*%
X85598000Y-95628000D03*
%TD*%
D10*
%TO.C,Q3*%
%TO.CFtp,SOT-23*%
%TO.CVal,DMG2301L*%
%TO.CLbN,Package_TO_SOT_SMD*%
%TO.CMnt,SMD*%
%TO.CRot,90*%
X88900000Y-82725500D03*
D11*
X90595000Y-80810500D02*
X90595000Y-84640500D01*
X87205000Y-84640500D01*
X87205000Y-80810500D01*
X90595000Y-80810500D01*
D12*
%TO.P,Q3,1,G*%
X87950000Y-83663000D03*
D13*
%TO.P,Q3,2,S*%
X89850000Y-83663000D03*
%TO.P,Q3,3,D*%
X88900000Y-81788000D03*
%TD*%
D10*
%TO.C,C2*%
%TO.CFtp,C_1206_3216Metric*%
%TO.CVal,100n*%
%TO.CLbN,Capacitor_SMD*%
%TO.CMnt,SMD*%
%TO.CRot,0*%
X104648000Y-82804000D03*
D11*
X106943000Y-81659000D02*
X106943000Y-83949000D01*
X102353000Y-83949000D01*
X102353000Y-81659000D01*
X106943000Y-81659000D01*
D12*
%TO.P,C2,1,1*%
X103173000Y-82804000D03*
D13*
%TO.P,C2,2,2*%
X106123000Y-82804000D03*
%TD*%
D10*
%TO.C,C6*%
%TO.CFtp,C_1206_3216Metric*%
%TO.CVal,100nF*%
%TO.CLbN,Capacitor_SMD*%
%TO.CMnt,SMD*%
%TO.CRot,0*%
X104648000Y-92964000D03*
D11*
X106943000Y-91819000D02*
X106943000Y-94109000D01*
X102353000Y-94109000D01*
X102353000Y-91819000D01*
X106943000Y-91819000D01*
D12*
%TO.P,C6,1*%
X103173000Y-92964000D03*
D13*
%TO.P,C6,2*%
X106123000Y-92964000D03*
%TD*%
D10*
%TO.C,R15*%
%TO.CFtp,R_1206_3216Metric*%
%TO.CVal,10k*%
%TO.CLbN,Resistor_SMD*%
%TO.CMnt,SMD*%
%TO.CRot,0*%
X104660500Y-77724000D03*
D11*
X106935500Y-76609000D02*
X106935500Y-78839000D01*
X102385500Y-78839000D01*
X102385500Y-76609000D01*
X106935500Y-76609000D01*
D12*
%TO.P,R15,1,1*%
X103198000Y-77724000D03*
D13*
%TO.P,R15,2,2*%
X106123000Y-77724000D03*
%TD*%
D10*
%TO.C,J2*%
%TO.CFtp,USB_C_Receptacle_HRO_TYPE-C-31-M-12*%
%TO.CVal,USB_C_Receptacle_USB2.0*%
%TO.CLbN,Connector_USB*%
%TO.CMnt,SMD*%
%TO.CRot,0*%
X93630000Y-95504000D03*
D11*
X98945000Y-90239000D02*
X98945000Y-99649000D01*
X88315000Y-99649000D01*
X88315000Y-90239000D01*
X98945000Y-90239000D01*
D12*
%TO.P,J2,A1,GND*%
X90380000Y-91459000D03*
D13*
%TO.P,J2,*%
X90740000Y-92904000D03*
X96520000Y-92904000D03*
%TO.P,J2,A4,VBUS*%
X91180000Y-91459000D03*
%TO.P,J2,A5,CC1*%
X92380000Y-91459000D03*
%TO.P,J2,A6,D+*%
X93380000Y-91459000D03*
%TO.P,J2,A7,D-*%
X93880000Y-91459000D03*
%TO.P,J2,A8,SBU1*%
X94880000Y-91459000D03*
%TO.P,J2,A9,VBUS*%
X96080000Y-91459000D03*
%TO.P,J2,A12,GND*%
X96880000Y-91459000D03*
%TO.P,J2,B1,GND*%
X96880000Y-91459000D03*
%TO.P,J2,B4,VBUS*%
X96080000Y-91459000D03*
%TO.P,J2,B5,CC2*%
X95380000Y-91459000D03*
%TO.P,J2,B6,D+*%
X94380000Y-91459000D03*
%TO.P,J2,B7,D-*%
X92880000Y-91459000D03*
%TO.P,J2,B8,SBU2*%
X91880000Y-91459000D03*
%TO.P,J2,B9,VBUS*%
X91180000Y-91459000D03*
%TO.P,J2,B12,GND*%
X90380000Y-91459000D03*
%TO.P,J2,S1,SHIELD*%
X89310000Y-92374000D03*
X89310000Y-96554000D03*
X97950000Y-92374000D03*
X97950000Y-96554000D03*
%TD*%
D10*
%TO.C,C3*%
%TO.CFtp,C_1206_3216Metric*%
%TO.CVal,2.2u*%
%TO.CLbN,Capacitor_SMD*%
%TO.CMnt,SMD*%
%TO.CRot,0*%
X104648000Y-85344000D03*
D11*
X106943000Y-84199000D02*
X106943000Y-86489000D01*
X102353000Y-86489000D01*
X102353000Y-84199000D01*
X106943000Y-84199000D01*
D12*
%TO.P,C3,1,1*%
X103173000Y-85344000D03*
D13*
%TO.P,C3,2,2*%
X106123000Y-85344000D03*
%TD*%
D10*
%TO.C,U2*%
%TO.CFtp,SOIC-16_3.9x9.9mm_P1.27mm*%
%TO.CVal,CH340C*%
%TO.CLbN,Package_SO*%
%TO.CMnt,SMD*%
%TO.CRot,0*%
X94931000Y-75565000D03*
D11*
X98626000Y-70370000D02*
X98626000Y-80760000D01*
X91236000Y-80760000D01*
X91236000Y-70370000D01*
X98626000Y-70370000D01*
D12*
%TO.P,U2,1,GND*%
X92456000Y-71120000D03*
D13*
%TO.P,U2,2,TXD*%
X92456000Y-72390000D03*
%TO.P,U2,3,RXD*%
X92456000Y-73660000D03*
%TO.P,U2,4,V3*%
X92456000Y-74930000D03*
%TO.P,U2,5,UD+*%
X92456000Y-76200000D03*
%TO.P,U2,6,UD-*%
X92456000Y-77470000D03*
%TO.P,U2,7,NC*%
X92456000Y-78740000D03*
%TO.P,U2,8,NC*%
X92456000Y-80010000D03*
%TO.P,U2,9,~{CTS}*%
X97406000Y-80010000D03*
%TO.P,U2,10,~{DSR}*%
X97406000Y-78740000D03*
%TO.P,U2,11,~{RI}*%
X97406000Y-77470000D03*
%TO.P,U2,12,~{DCD}*%
X97406000Y-76200000D03*
%TO.P,U2,13,~{DTR}*%
X97406000Y-74930000D03*
%TO.P,U2,14,~{RTS}*%
X97406000Y-73660000D03*
%TO.P,U2,15,R232*%
X97406000Y-72390000D03*
%TO.P,U2,16,VCC*%
X97406000Y-71120000D03*
%TD*%
D10*
%TO.C,C1*%
%TO.CFtp,C_1206_3216Metric*%
%TO.CVal,100n*%
%TO.CLbN,Capacitor_SMD*%
%TO.CMnt,SMD*%
%TO.CRot,0*%
X104648000Y-80264000D03*
D11*
X106943000Y-79119000D02*
X106943000Y-81409000D01*
X102353000Y-81409000D01*
X102353000Y-79119000D01*
X106943000Y-79119000D01*
D12*
%TO.P,C1,1,1*%
X103173000Y-80264000D03*
D13*
%TO.P,C1,2,2*%
X106123000Y-80264000D03*
%TD*%
D10*
%TO.C,U1*%
%TO.CFtp,TDFN-8-1EP_2x2mm_P0.5mm_EP0.8x1.2mm*%
%TO.CVal,MAX17048G*%
%TO.CLbN,Package_DFN_QFN*%
%TO.CMnt,SMD*%
%TO.CRot,-90*%
X81742000Y-96974000D03*
D11*
X82987000Y-95349000D02*
X82987000Y-98599000D01*
X80497000Y-98599000D01*
X80497000Y-95349000D01*
X82987000Y-95349000D01*
D12*
%TO.P,U1,1,CTG*%
X82492000Y-95986500D03*
D13*
%TO.P,U1,2,CELL*%
X81992000Y-95986500D03*
%TO.P,U1,3,VDD*%
X81492000Y-95986500D03*
%TO.P,U1,4,GND*%
X80992000Y-95986500D03*
%TO.P,U1,5,ALRT*%
X80992000Y-97961500D03*
%TO.P,U1,6,QSTRT*%
X81492000Y-97961500D03*
%TO.P,U1,7,SCL*%
X81992000Y-97961500D03*
%TO.P,U1,8,SDA*%
X82492000Y-97961500D03*
%TO.P,U1,9,EP*%
X81742000Y-96974000D03*
%TD*%
D10*
%TO.C,R9*%
%TO.CFtp,R_1206_3216Metric*%
%TO.CVal,12k*%
%TO.CLbN,Resistor_SMD*%
%TO.CMnt,SMD*%
%TO.CRot,0*%
X104709500Y-62484000D03*
D11*
X106984500Y-61369000D02*
X106984500Y-63599000D01*
X102434500Y-63599000D01*
X102434500Y-61369000D01*
X106984500Y-61369000D01*
D12*
%TO.P,R9,1,1*%
X103247000Y-62484000D03*
D13*
%TO.P,R9,2,2*%
X106172000Y-62484000D03*
%TD*%
D10*
%TO.C,ID0*%
%TO.CFtp,SW_DIP_SPSTx02_Slide_6.7x6.64mm_W6.73mm_P2.54mm_LowProfile_JPin*%
%TO.CVal,SW_DIP-2*%
%TO.CLbN,Button_Switch_SMD*%
%TO.CMnt,SMD*%
%TO.CRot,0*%
X84582000Y-69342000D03*
D11*
X89277000Y-65697000D02*
X89277000Y-72987000D01*
X79887000Y-72987000D01*
X79887000Y-65697000D01*
X89277000Y-65697000D01*
D12*
%TO.P,ID0,1,1*%
X81217000Y-68072000D03*
D13*
%TO.P,ID0,2,2*%
X81217000Y-70612000D03*
%TO.P,ID0,3,3*%
X87947000Y-70612000D03*
%TO.P,ID0,4,4*%
X87947000Y-68072000D03*
%TD*%
D10*
%TO.C,R3*%
%TO.CFtp,R_1206_3216Metric*%
%TO.CVal,12k*%
%TO.CLbN,Resistor_SMD*%
%TO.CMnt,SMD*%
%TO.CRot,0*%
X104648000Y-52324000D03*
D11*
X106923000Y-51209000D02*
X106923000Y-53439000D01*
X102373000Y-53439000D01*
X102373000Y-51209000D01*
X106923000Y-51209000D01*
D12*
%TO.P,R3,1,1*%
X103185500Y-52324000D03*
D13*
%TO.P,R3,2,2*%
X106110500Y-52324000D03*
%TD*%
D10*
%TO.C,BMP280*%
%TO.CFtp,PinHeader_1x04_P2.54mm_Vertical*%
%TO.CVal,PINHD-1X4*%
%TO.CLbN,Connector_PinHeader_2.54mm*%
%TO.CMnt,TH*%
%TO.CRot,180*%
X105156000Y-48768000D03*
D11*
X106951000Y-39373000D02*
X106951000Y-50563000D01*
X103361000Y-50563000D01*
X103361000Y-39373000D01*
X106951000Y-39373000D01*
D12*
%TO.P,BMP280,1,1*%
X105156000Y-48768000D03*
D13*
%TO.P,BMP280,2,2*%
X105156000Y-46228000D03*
%TO.P,BMP280,3,3*%
X105156000Y-43688000D03*
%TO.P,BMP280,4,4*%
X105156000Y-41148000D03*
%TD*%
D10*
%TO.C,C5*%
%TO.CFtp,C_1206_3216Metric*%
%TO.CVal,4.7u*%
%TO.CLbN,Capacitor_SMD*%
%TO.CMnt,SMD*%
%TO.CRot,0*%
X104648000Y-90424000D03*
D11*
X106943000Y-89279000D02*
X106943000Y-91569000D01*
X102353000Y-91569000D01*
X102353000Y-89279000D01*
X106943000Y-89279000D01*
D12*
%TO.P,C5,1,1*%
X103173000Y-90424000D03*
D13*
%TO.P,C5,2,2*%
X106123000Y-90424000D03*
%TD*%
D10*
%TO.C,D2*%
%TO.CFtp,D_SOD-123*%
%TO.CVal,MBR0520*%
%TO.CLbN,Diode_SMD*%
%TO.CMnt,SMD*%
%TO.CRot,0*%
X82296000Y-81788000D03*
D11*
X84641000Y-80643000D02*
X84641000Y-82933000D01*
X79951000Y-82933000D01*
X79951000Y-80643000D01*
X84641000Y-80643000D01*
D12*
%TO.P,D2,1,K*%
X80646000Y-81788000D03*
D13*
%TO.P,D2,2,A*%
X83946000Y-81788000D03*
%TD*%
D10*
%TO.C,RESET1*%
%TO.CFtp,SW_SPST_TL3342*%
%TO.CVal,SW_Push*%
%TO.CLbN,Button_Switch_SMD*%
%TO.CMnt,SMD*%
%TO.CRot,0*%
X84074000Y-76962000D03*
D11*
X88319000Y-73967000D02*
X88319000Y-79957000D01*
X79829000Y-79957000D01*
X79829000Y-73967000D01*
X88319000Y-73967000D01*
D12*
%TO.P,RESET1,1,1*%
X80924000Y-75062000D03*
X87224000Y-75062000D03*
D13*
%TO.P,RESET1,2,2*%
X80924000Y-78862000D03*
X87224000Y-78862000D03*
%TD*%
D10*
%TO.C,R10*%
%TO.CFtp,R_1206_3216Metric*%
%TO.CVal,470*%
%TO.CLbN,Resistor_SMD*%
%TO.CMnt,SMD*%
%TO.CRot,0*%
X104709500Y-65024000D03*
D11*
X106984500Y-63909000D02*
X106984500Y-66139000D01*
X102434500Y-66139000D01*
X102434500Y-63909000D01*
X106984500Y-63909000D01*
D12*
%TO.P,R10,1,1*%
X103247000Y-65024000D03*
D13*
%TO.P,R10,2,2*%
X106172000Y-65024000D03*
%TD*%
D10*
%TO.C,R1*%
%TO.CFtp,R_1206_3216Metric*%
%TO.CVal,12k*%
%TO.CLbN,Resistor_SMD*%
%TO.CMnt,SMD*%
%TO.CRot,0*%
X100584000Y-40640000D03*
D11*
X102859000Y-39525000D02*
X102859000Y-41755000D01*
X98309000Y-41755000D01*
X98309000Y-39525000D01*
X102859000Y-39525000D01*
D12*
%TO.P,R1,1,1*%
X99121500Y-40640000D03*
D13*
%TO.P,R1,2,2*%
X102046500Y-40640000D03*
%TD*%
D10*
%TO.C,C4*%
%TO.CFtp,C_1206_3216Metric*%
%TO.CVal,4.7u*%
%TO.CLbN,Capacitor_SMD*%
%TO.CMnt,SMD*%
%TO.CRot,0*%
X104648000Y-87884000D03*
D11*
X106943000Y-86739000D02*
X106943000Y-89029000D01*
X102353000Y-89029000D01*
X102353000Y-86739000D01*
X106943000Y-86739000D01*
D12*
%TO.P,C4,1,1*%
X103173000Y-87884000D03*
D13*
%TO.P,C4,2,2*%
X106123000Y-87884000D03*
%TD*%
D10*
%TO.C,Q1*%
%TO.CFtp,SOT-23-3*%
%TO.CVal,NPN-TRANSISTOR_SOT23*%
%TO.CLbN,Package_TO_SOT_SMD*%
%TO.CMnt,SMD*%
%TO.CRot,90*%
X93086000Y-67564000D03*
D11*
X94781000Y-65519000D02*
X94781000Y-69609000D01*
X91391000Y-69609000D01*
X91391000Y-65519000D01*
X94781000Y-65519000D01*
D12*
%TO.P,Q1,1,B*%
X92136000Y-68701500D03*
D13*
%TO.P,Q1,2,E*%
X94036000Y-68701500D03*
%TO.P,Q1,3,C*%
X93086000Y-66426500D03*
%TD*%
D10*
%TO.C,R4*%
%TO.CFtp,R_1206_3216Metric*%
%TO.CVal,12k*%
%TO.CLbN,Resistor_SMD*%
%TO.CMnt,SMD*%
%TO.CRot,0*%
X104709500Y-54864000D03*
D11*
X106984500Y-53749000D02*
X106984500Y-55979000D01*
X102434500Y-55979000D01*
X102434500Y-53749000D01*
X106984500Y-53749000D01*
D12*
%TO.P,R4,1,1*%
X103247000Y-54864000D03*
D13*
%TO.P,R4,2,2*%
X106172000Y-54864000D03*
%TD*%
D10*
%TO.C,R5*%
%TO.CFtp,R_1206_3216Metric*%
%TO.CVal,12k*%
%TO.CLbN,Resistor_SMD*%
%TO.CMnt,SMD*%
%TO.CRot,0*%
X104709500Y-57404000D03*
D11*
X106984500Y-56289000D02*
X106984500Y-58519000D01*
X102434500Y-58519000D01*
X102434500Y-56289000D01*
X106984500Y-56289000D01*
D12*
%TO.P,R5,1,1*%
X103247000Y-57404000D03*
D13*
%TO.P,R5,2,2*%
X106172000Y-57404000D03*
%TD*%
D10*
%TO.C,C8*%
%TO.CFtp,C_1206_3216Metric*%
%TO.CVal,2.2u*%
%TO.CLbN,Capacitor_SMD*%
%TO.CMnt,SMD*%
%TO.CRot,0*%
X104648000Y-98044000D03*
D11*
X106943000Y-96899000D02*
X106943000Y-99189000D01*
X102353000Y-99189000D01*
X102353000Y-96899000D01*
X106943000Y-96899000D01*
D12*
%TO.P,C8,1,1*%
X103173000Y-98044000D03*
D13*
%TO.P,C8,2,2*%
X106123000Y-98044000D03*
%TD*%
D10*
%TO.C,U6*%
%TO.CFtp,SOT-23-5*%
%TO.CVal,AP2112K-3.3*%
%TO.CLbN,Package_TO_SOT_SMD*%
%TO.CMnt,SMD*%
%TO.CRot,0*%
X98176500Y-83754000D03*
D11*
X100221500Y-82059000D02*
X100221500Y-85449000D01*
X96131500Y-85449000D01*
X96131500Y-82059000D01*
X100221500Y-82059000D01*
D12*
%TO.P,U6,1,VIN*%
X97039000Y-82804000D03*
D13*
%TO.P,U6,2,GND*%
X97039000Y-83754000D03*
%TO.P,U6,3,EN*%
X97039000Y-84704000D03*
%TO.P,U6,4,NC*%
X99314000Y-84704000D03*
%TO.P,U6,5,VOUT*%
X99314000Y-82804000D03*
%TD*%
D10*
%TO.C,BATT0*%
%TO.CFtp,JST_PH_B2B-PH-SM4-TB_1x02-1MP_P2.00mm_Vertical*%
%TO.CVal,PINHD-1X2*%
%TO.CLbN,Connector_JST*%
%TO.CMnt,SMD*%
%TO.CRot,90*%
X84336000Y-89506000D03*
D11*
X88081000Y-84811000D02*
X88081000Y-94201000D01*
X79591000Y-94201000D01*
X79591000Y-84811000D01*
X88081000Y-84811000D01*
D12*
%TO.P,BATT0,1,1*%
X84836000Y-90506000D03*
D13*
%TO.P,BATT0,2,2*%
X84836000Y-88506000D03*
%TO.P,BATT0,MP*%
X82586000Y-92906000D03*
X82586000Y-86106000D03*
%TD*%
M02*
