%TF.GenerationSoftware,KiCad,Pcbnew,8.0.8*%
%TF.CreationDate,2025-02-15T17:25:52+01:00*%
%TF.ProjectId,Weathernode,57656174-6865-4726-9e6f-64652e6b6963,rev?*%
%TF.SameCoordinates,Original*%
%TF.FileFunction,Copper,L1,Top*%
%TF.FilePolarity,Positive*%
%FSLAX46Y46*%
G04 Gerber Fmt 4.6, Leading zero omitted, Abs format (unit mm)*
G04 Created by KiCad (PCBNEW 8.0.8) date 2025-02-15 17:25:52*
%MOMM*%
%LPD*%
G01*
G04 APERTURE LIST*
G04 Aperture macros list*
%AMRoundRect*
0 Rectangle with rounded corners*
0 $1 Rounding radius*
0 $2 $3 $4 $5 $6 $7 $8 $9 X,Y pos of 4 corners*
0 Add a 4 corners polygon primitive as box body*
4,1,4,$2,$3,$4,$5,$6,$7,$8,$9,$2,$3,0*
0 Add four circle primitives for the rounded corners*
1,1,$1+$1,$2,$3*
1,1,$1+$1,$4,$5*
1,1,$1+$1,$6,$7*
1,1,$1+$1,$8,$9*
0 Add four rect primitives between the rounded corners*
20,1,$1+$1,$2,$3,$4,$5,0*
20,1,$1+$1,$4,$5,$6,$7,0*
20,1,$1+$1,$6,$7,$8,$9,0*
20,1,$1+$1,$8,$9,$2,$3,0*%
G04 Aperture macros list end*
%TA.AperFunction,SMDPad,CuDef*%
%ADD10RoundRect,0.250000X-0.312500X-0.625000X0.312500X-0.625000X0.312500X0.625000X-0.312500X0.625000X0*%
%TD*%
%TA.AperFunction,SMDPad,CuDef*%
%ADD11R,2.500000X1.000000*%
%TD*%
%TA.AperFunction,SMDPad,CuDef*%
%ADD12R,1.000000X1.800000*%
%TD*%
%TA.AperFunction,SMDPad,CuDef*%
%ADD13RoundRect,0.162500X-0.837500X-0.162500X0.837500X-0.162500X0.837500X0.162500X-0.837500X0.162500X0*%
%TD*%
%TA.AperFunction,SMDPad,CuDef*%
%ADD14RoundRect,0.150000X-0.512500X-0.150000X0.512500X-0.150000X0.512500X0.150000X-0.512500X0.150000X0*%
%TD*%
%TA.AperFunction,SMDPad,CuDef*%
%ADD15RoundRect,0.250000X-0.325000X-0.650000X0.325000X-0.650000X0.325000X0.650000X-0.325000X0.650000X0*%
%TD*%
%TA.AperFunction,SMDPad,CuDef*%
%ADD16RoundRect,0.150000X0.150000X-0.512500X0.150000X0.512500X-0.150000X0.512500X-0.150000X-0.512500X0*%
%TD*%
%TA.AperFunction,SMDPad,CuDef*%
%ADD17RoundRect,0.250000X0.625000X-0.375000X0.625000X0.375000X-0.625000X0.375000X-0.625000X-0.375000X0*%
%TD*%
%TA.AperFunction,SMDPad,CuDef*%
%ADD18RoundRect,0.150000X0.150000X-0.587500X0.150000X0.587500X-0.150000X0.587500X-0.150000X-0.587500X0*%
%TD*%
%TA.AperFunction,SMDPad,CuDef*%
%ADD19R,0.600000X1.450000*%
%TD*%
%TA.AperFunction,SMDPad,CuDef*%
%ADD20R,0.300000X1.450000*%
%TD*%
%TA.AperFunction,ComponentPad*%
%ADD21O,1.000000X2.100000*%
%TD*%
%TA.AperFunction,ComponentPad*%
%ADD22O,1.000000X1.600000*%
%TD*%
%TA.AperFunction,SMDPad,CuDef*%
%ADD23RoundRect,0.150000X-0.825000X-0.150000X0.825000X-0.150000X0.825000X0.150000X-0.825000X0.150000X0*%
%TD*%
%TA.AperFunction,SMDPad,CuDef*%
%ADD24RoundRect,0.062500X-0.062500X0.325000X-0.062500X-0.325000X0.062500X-0.325000X0.062500X0.325000X0*%
%TD*%
%TA.AperFunction,HeatsinkPad*%
%ADD25R,1.200000X0.800000*%
%TD*%
%TA.AperFunction,SMDPad,CuDef*%
%ADD26R,2.160000X1.120000*%
%TD*%
%TA.AperFunction,ComponentPad*%
%ADD27R,1.700000X1.700000*%
%TD*%
%TA.AperFunction,ComponentPad*%
%ADD28O,1.700000X1.700000*%
%TD*%
%TA.AperFunction,SMDPad,CuDef*%
%ADD29RoundRect,0.225000X-0.225000X-0.375000X0.225000X-0.375000X0.225000X0.375000X-0.225000X0.375000X0*%
%TD*%
%TA.AperFunction,SMDPad,CuDef*%
%ADD30R,1.700000X1.000000*%
%TD*%
%TA.AperFunction,SMDPad,CuDef*%
%ADD31RoundRect,0.250000X2.500000X-0.250000X2.500000X0.250000X-2.500000X0.250000X-2.500000X-0.250000X0*%
%TD*%
%TA.AperFunction,SMDPad,CuDef*%
%ADD32RoundRect,0.250000X1.250000X-0.550000X1.250000X0.550000X-1.250000X0.550000X-1.250000X-0.550000X0*%
%TD*%
%TA.AperFunction,ViaPad*%
%ADD33C,0.800000*%
%TD*%
%TA.AperFunction,Conductor*%
%ADD34C,0.250000*%
%TD*%
G04 APERTURE END LIST*
D10*
%TO.P,R12,1,1*%
%TO.N,GND*%
X103247000Y-70104000D03*
%TO.P,R12,2,2*%
%TO.N,Net-(U5-PROG)*%
X106172000Y-70104000D03*
%TD*%
%TO.P,R13,1,1*%
%TO.N,Net-(J2-CC2)*%
X103198000Y-75184000D03*
%TO.P,R13,2,2*%
%TO.N,GND*%
X106123000Y-75184000D03*
%TD*%
%TO.P,R8,1,1*%
%TO.N,Net-(Q1-B)*%
X103247000Y-59944000D03*
%TO.P,R8,2,2*%
%TO.N,Net-(Q2-E)*%
X106172000Y-59944000D03*
%TD*%
D11*
%TO.P,U3,1,~{RST}*%
%TO.N,RST*%
X81066000Y-48006000D03*
%TO.P,U3,2,ADC*%
%TO.N,unconnected-(U3-ADC-Pad2)*%
X81066000Y-50006000D03*
%TO.P,U3,3,EN*%
%TO.N,Net-(U3-EN)*%
X81066000Y-52006000D03*
%TO.P,U3,4,GPIO16*%
%TO.N,Net-(U3-GPIO16)*%
X81066000Y-54006000D03*
%TO.P,U3,5,GPIO14*%
%TO.N,Net-(U3-GPIO14)*%
X81066000Y-56006000D03*
%TO.P,U3,6,GPIO12*%
%TO.N,Net-(U3-GPIO12)*%
X81066000Y-58006000D03*
%TO.P,U3,7,GPIO13*%
%TO.N,CHG*%
X81066000Y-60006000D03*
%TO.P,U3,8,VCC*%
%TO.N,+3.3V*%
X81066000Y-62006000D03*
D12*
%TO.P,U3,9,CS0*%
%TO.N,unconnected-(U3-CS0-Pad9)*%
X83666000Y-63506000D03*
%TO.P,U3,10,MISO*%
%TO.N,unconnected-(U3-MISO-Pad10)*%
X85666000Y-63506000D03*
%TO.P,U3,11,GPIO9*%
%TO.N,unconnected-(U3-GPIO9-Pad11)*%
X87666000Y-63506000D03*
%TO.P,U3,12,GPIO10*%
%TO.N,unconnected-(U3-GPIO10-Pad12)*%
X89666000Y-63506000D03*
%TO.P,U3,13,MOSI*%
%TO.N,unconnected-(U3-MOSI-Pad13)*%
X91666000Y-63506000D03*
%TO.P,U3,14,SCLK*%
%TO.N,unconnected-(U3-SCLK-Pad14)*%
X93666000Y-63506000D03*
D11*
%TO.P,U3,15,GND*%
%TO.N,GND*%
X96266000Y-62006000D03*
%TO.P,U3,16,GPIO15*%
%TO.N,Net-(U3-GPIO15)*%
X96266000Y-60006000D03*
%TO.P,U3,17,GPIO2*%
%TO.N,Net-(U3-GPIO2)*%
X96266000Y-58006000D03*
%TO.P,U3,18,GPIO0*%
%TO.N,GPIO0*%
X96266000Y-56006000D03*
%TO.P,U3,19,GPIO4*%
%TO.N,SDA*%
X96266000Y-54006000D03*
%TO.P,U3,20,GPIO5*%
%TO.N,SCL*%
X96266000Y-52006000D03*
%TO.P,U3,21,GPIO3/RXD*%
%TO.N,TXD*%
X96266000Y-50006000D03*
%TO.P,U3,22,GPIO1/TXD*%
%TO.N,RXD*%
X96266000Y-48006000D03*
%TD*%
D13*
%TO.P,U5,1,STAT*%
%TO.N,CHG*%
X91883500Y-86614000D03*
%TO.P,U5,2,VSS*%
%TO.N,GND*%
X91883500Y-87564000D03*
%TO.P,U5,3,VBAT*%
%TO.N,+BATT*%
X91883500Y-88514000D03*
%TO.P,U5,4,VDD*%
%TO.N,VBUS*%
X95303500Y-88514000D03*
%TO.P,U5,5,PROG*%
%TO.N,Net-(U5-PROG)*%
X95303500Y-86614000D03*
%TD*%
D14*
%TO.P,U4,1,VIN*%
%TO.N,Net-(D2-K)*%
X92467000Y-82804000D03*
%TO.P,U4,2,GND*%
%TO.N,GND*%
X92467000Y-83754000D03*
%TO.P,U4,3,EN*%
%TO.N,Net-(D2-K)*%
X92467000Y-84704000D03*
%TO.P,U4,4,NC*%
%TO.N,unconnected-(U4-NC-Pad4)*%
X94742000Y-84704000D03*
%TO.P,U4,5,VOUT*%
%TO.N,+3.3V*%
X94742000Y-82804000D03*
%TD*%
D10*
%TO.P,R2,1,1*%
%TO.N,Net-(U3-GPIO2)*%
X99121500Y-43180000D03*
%TO.P,R2,2,2*%
%TO.N,+3.3V*%
X102046500Y-43180000D03*
%TD*%
%TO.P,R11,1,1*%
%TO.N,CHG*%
X103247000Y-67564000D03*
%TO.P,R11,2,2*%
%TO.N,Net-(D1-K)*%
X106172000Y-67564000D03*
%TD*%
%TO.P,R14,1,1*%
%TO.N,Net-(J2-CC1)*%
X103198000Y-72644000D03*
%TO.P,R14,2,2*%
%TO.N,GND*%
X106123000Y-72644000D03*
%TD*%
D15*
%TO.P,C7,1,1*%
%TO.N,VBUS*%
X103173000Y-95504000D03*
%TO.P,C7,2,2*%
%TO.N,GND*%
X106123000Y-95504000D03*
%TD*%
D16*
%TO.P,Q2,1,B*%
%TO.N,Net-(Q2-B)*%
X96586000Y-68701500D03*
%TO.P,Q2,2,E*%
%TO.N,Net-(Q2-E)*%
X98486000Y-68701500D03*
%TO.P,Q2,3,C*%
%TO.N,GPIO0*%
X97536000Y-66426500D03*
%TD*%
D17*
%TO.P,D1,1,K*%
%TO.N,Net-(D1-K)*%
X85598000Y-98428000D03*
%TO.P,D1,2,A*%
%TO.N,VBUS*%
X85598000Y-95628000D03*
%TD*%
D18*
%TO.P,Q3,1,G*%
%TO.N,VBUS*%
X87950000Y-83663000D03*
%TO.P,Q3,2,S*%
%TO.N,Net-(D2-K)*%
X89850000Y-83663000D03*
%TO.P,Q3,3,D*%
%TO.N,+BATT*%
X88900000Y-81788000D03*
%TD*%
D15*
%TO.P,C2,1,1*%
%TO.N,Net-(D2-K)*%
X103173000Y-82804000D03*
%TO.P,C2,2,2*%
%TO.N,GND*%
X106123000Y-82804000D03*
%TD*%
%TO.P,C6,1*%
%TO.N,+BATT*%
X103173000Y-92964000D03*
%TO.P,C6,2*%
%TO.N,GND*%
X106123000Y-92964000D03*
%TD*%
D10*
%TO.P,R15,1,1*%
%TO.N,VBUS*%
X103198000Y-77724000D03*
%TO.P,R15,2,2*%
%TO.N,GND*%
X106123000Y-77724000D03*
%TD*%
D19*
%TO.P,J2,A1,GND*%
%TO.N,GND*%
X90380000Y-91459000D03*
%TO.P,J2,A4,VBUS*%
%TO.N,VBUS*%
X91180000Y-91459000D03*
D20*
%TO.P,J2,A5,CC1*%
%TO.N,Net-(J2-CC1)*%
X92380000Y-91459000D03*
%TO.P,J2,A6,D+*%
%TO.N,Net-(U2-UD+)*%
X93380000Y-91459000D03*
%TO.P,J2,A7,D-*%
%TO.N,Net-(U2-UD-)*%
X93880000Y-91459000D03*
%TO.P,J2,A8,SBU1*%
%TO.N,GND*%
X94880000Y-91459000D03*
D19*
%TO.P,J2,A9,VBUS*%
%TO.N,VBUS*%
X96080000Y-91459000D03*
%TO.P,J2,A12,GND*%
%TO.N,GND*%
X96880000Y-91459000D03*
%TO.P,J2,B1,GND*%
X96880000Y-91459000D03*
%TO.P,J2,B4,VBUS*%
%TO.N,VBUS*%
X96080000Y-91459000D03*
D20*
%TO.P,J2,B5,CC2*%
%TO.N,Net-(J2-CC2)*%
X95380000Y-91459000D03*
%TO.P,J2,B6,D+*%
%TO.N,Net-(U2-UD+)*%
X94380000Y-91459000D03*
%TO.P,J2,B7,D-*%
%TO.N,Net-(U2-UD-)*%
X92880000Y-91459000D03*
%TO.P,J2,B8,SBU2*%
%TO.N,GND*%
X91880000Y-91459000D03*
D19*
%TO.P,J2,B9,VBUS*%
%TO.N,VBUS*%
X91180000Y-91459000D03*
%TO.P,J2,B12,GND*%
%TO.N,GND*%
X90380000Y-91459000D03*
D21*
%TO.P,J2,S1,SHIELD*%
X89310000Y-92374000D03*
D22*
X89310000Y-96554000D03*
D21*
X97950000Y-92374000D03*
D22*
X97950000Y-96554000D03*
%TD*%
D15*
%TO.P,C3,1,1*%
%TO.N,+3.3V*%
X103173000Y-85344000D03*
%TO.P,C3,2,2*%
%TO.N,GND*%
X106123000Y-85344000D03*
%TD*%
D23*
%TO.P,U2,1,GND*%
%TO.N,GND*%
X92456000Y-71120000D03*
%TO.P,U2,2,TXD*%
%TO.N,TXD*%
X92456000Y-72390000D03*
%TO.P,U2,3,RXD*%
%TO.N,RXD*%
X92456000Y-73660000D03*
%TO.P,U2,4,V3*%
%TO.N,Net-(U2-V3)*%
X92456000Y-74930000D03*
%TO.P,U2,5,UD+*%
%TO.N,Net-(U2-UD+)*%
X92456000Y-76200000D03*
%TO.P,U2,6,UD-*%
%TO.N,Net-(U2-UD-)*%
X92456000Y-77470000D03*
%TO.P,U2,7,NC*%
%TO.N,unconnected-(U2-NC-Pad7)*%
X92456000Y-78740000D03*
%TO.P,U2,8,NC*%
%TO.N,unconnected-(U2-NC-Pad8)*%
X92456000Y-80010000D03*
%TO.P,U2,9,~{CTS}*%
%TO.N,unconnected-(U2-~{CTS}-Pad9)*%
X97406000Y-80010000D03*
%TO.P,U2,10,~{DSR}*%
%TO.N,unconnected-(U2-~{DSR}-Pad10)*%
X97406000Y-78740000D03*
%TO.P,U2,11,~{RI}*%
%TO.N,unconnected-(U2-~{RI}-Pad11)*%
X97406000Y-77470000D03*
%TO.P,U2,12,~{DCD}*%
%TO.N,unconnected-(U2-~{DCD}-Pad12)*%
X97406000Y-76200000D03*
%TO.P,U2,13,~{DTR}*%
%TO.N,Net-(Q2-E)*%
X97406000Y-74930000D03*
%TO.P,U2,14,~{RTS}*%
%TO.N,Net-(Q1-E)*%
X97406000Y-73660000D03*
%TO.P,U2,15,R232*%
%TO.N,unconnected-(U2-R232-Pad15)*%
X97406000Y-72390000D03*
%TO.P,U2,16,VCC*%
%TO.N,Net-(U2-V3)*%
X97406000Y-71120000D03*
%TD*%
D15*
%TO.P,C1,1,1*%
%TO.N,RST*%
X103173000Y-80264000D03*
%TO.P,C1,2,2*%
%TO.N,GND*%
X106123000Y-80264000D03*
%TD*%
D24*
%TO.P,U1,1,CTG*%
%TO.N,GND*%
X82492000Y-95986500D03*
%TO.P,U1,2,CELL*%
%TO.N,+BATT*%
X81992000Y-95986500D03*
%TO.P,U1,3,VDD*%
X81492000Y-95986500D03*
%TO.P,U1,4,GND*%
%TO.N,GND*%
X80992000Y-95986500D03*
%TO.P,U1,5,ALRT*%
%TO.N,unconnected-(U1-ALRT-Pad5)*%
X80992000Y-97961500D03*
%TO.P,U1,6,QSTRT*%
%TO.N,GND*%
X81492000Y-97961500D03*
%TO.P,U1,7,SCL*%
%TO.N,SCL*%
X81992000Y-97961500D03*
%TO.P,U1,8,SDA*%
%TO.N,SDA*%
X82492000Y-97961500D03*
D25*
%TO.P,U1,9,EP*%
%TO.N,GND*%
X81742000Y-96974000D03*
%TD*%
D10*
%TO.P,R9,1,1*%
%TO.N,Net-(Q2-B)*%
X103247000Y-62484000D03*
%TO.P,R9,2,2*%
%TO.N,Net-(Q1-E)*%
X106172000Y-62484000D03*
%TD*%
D26*
%TO.P,ID0,1,1*%
%TO.N,GND*%
X81217000Y-68072000D03*
%TO.P,ID0,2,2*%
X81217000Y-70612000D03*
%TO.P,ID0,3,3*%
%TO.N,Net-(U3-GPIO12)*%
X87947000Y-70612000D03*
%TO.P,ID0,4,4*%
%TO.N,Net-(U3-GPIO14)*%
X87947000Y-68072000D03*
%TD*%
D10*
%TO.P,R3,1,1*%
%TO.N,+3.3V*%
X103185500Y-52324000D03*
%TO.P,R3,2,2*%
%TO.N,Net-(U3-EN)*%
X106110500Y-52324000D03*
%TD*%
D27*
%TO.P,BMP280,1,1*%
%TO.N,+3.3V*%
X105156000Y-48768000D03*
D28*
%TO.P,BMP280,2,2*%
%TO.N,GND*%
X105156000Y-46228000D03*
%TO.P,BMP280,3,3*%
%TO.N,SCL*%
X105156000Y-43688000D03*
%TO.P,BMP280,4,4*%
%TO.N,SDA*%
X105156000Y-41148000D03*
%TD*%
D15*
%TO.P,C5,1,1*%
%TO.N,VBUS*%
X103173000Y-90424000D03*
%TO.P,C5,2,2*%
%TO.N,GND*%
X106123000Y-90424000D03*
%TD*%
D29*
%TO.P,D2,1,K*%
%TO.N,Net-(D2-K)*%
X80646000Y-81788000D03*
%TO.P,D2,2,A*%
%TO.N,VBUS*%
X83946000Y-81788000D03*
%TD*%
D30*
%TO.P,RESET1,1,1*%
%TO.N,GND*%
X80924000Y-75062000D03*
X87224000Y-75062000D03*
%TO.P,RESET1,2,2*%
%TO.N,RST*%
X80924000Y-78862000D03*
X87224000Y-78862000D03*
%TD*%
D10*
%TO.P,R10,1,1*%
%TO.N,RST*%
X103247000Y-65024000D03*
%TO.P,R10,2,2*%
%TO.N,Net-(U3-GPIO16)*%
X106172000Y-65024000D03*
%TD*%
%TO.P,R1,1,1*%
%TO.N,GPIO0*%
X99121500Y-40640000D03*
%TO.P,R1,2,2*%
%TO.N,+3.3V*%
X102046500Y-40640000D03*
%TD*%
D15*
%TO.P,C4,1,1*%
%TO.N,+BATT*%
X103173000Y-87884000D03*
%TO.P,C4,2,2*%
%TO.N,GND*%
X106123000Y-87884000D03*
%TD*%
D16*
%TO.P,Q1,1,B*%
%TO.N,Net-(Q1-B)*%
X92136000Y-68701500D03*
%TO.P,Q1,2,E*%
%TO.N,Net-(Q1-E)*%
X94036000Y-68701500D03*
%TO.P,Q1,3,C*%
%TO.N,RST*%
X93086000Y-66426500D03*
%TD*%
D10*
%TO.P,R4,1,1*%
%TO.N,+3.3V*%
X103247000Y-54864000D03*
%TO.P,R4,2,2*%
%TO.N,RST*%
X106172000Y-54864000D03*
%TD*%
%TO.P,R5,1,1*%
%TO.N,Net-(U3-GPIO15)*%
X103247000Y-57404000D03*
%TO.P,R5,2,2*%
%TO.N,GND*%
X106172000Y-57404000D03*
%TD*%
D15*
%TO.P,C8,1,1*%
%TO.N,Net-(U2-V3)*%
X103173000Y-98044000D03*
%TO.P,C8,2,2*%
%TO.N,GND*%
X106123000Y-98044000D03*
%TD*%
D14*
%TO.P,U6,1,VIN*%
%TO.N,VBUS*%
X97039000Y-82804000D03*
%TO.P,U6,2,GND*%
%TO.N,GND*%
X97039000Y-83754000D03*
%TO.P,U6,3,EN*%
%TO.N,VBUS*%
X97039000Y-84704000D03*
%TO.P,U6,4,NC*%
%TO.N,unconnected-(U6-NC-Pad4)*%
X99314000Y-84704000D03*
%TO.P,U6,5,VOUT*%
%TO.N,Net-(U2-V3)*%
X99314000Y-82804000D03*
%TD*%
D31*
%TO.P,BATT0,1,1*%
%TO.N,+BATT*%
X84836000Y-90506000D03*
%TO.P,BATT0,2,2*%
%TO.N,GND*%
X84836000Y-88506000D03*
D32*
%TO.P,BATT0,MP*%
%TO.N,N/C*%
X82586000Y-92906000D03*
X82586000Y-86106000D03*
%TD*%
D33*
%TO.N,GND*%
X104971800Y-57380900D03*
X91101400Y-70411400D03*
X90256000Y-87391000D03*
%TO.N,+3.3V*%
X82555000Y-63132700D03*
X92276100Y-81659700D03*
%TO.N,Net-(U2-UD+)*%
X94477900Y-89473400D03*
X95563600Y-79067100D03*
%TO.N,Net-(U2-UD-)*%
X93475600Y-89796200D03*
X94588900Y-80245000D03*
%TO.N,Net-(J2-CC1)*%
X104400600Y-75308300D03*
X92075700Y-90132100D03*
%TO.N,Net-(U3-EN)*%
X89693900Y-56231200D03*
X104911500Y-52410100D03*
%TO.N,Net-(Q1-E)*%
X98154000Y-70166600D03*
X104955900Y-65147500D03*
%TO.N,Net-(U3-GPIO16)*%
X104455600Y-64154100D03*
X87596700Y-58344200D03*
%TO.N,CHG*%
X92614600Y-85607100D03*
X102174400Y-68636600D03*
X83950300Y-61995100D03*
%TO.N,Net-(D1-K)*%
X105001400Y-70189500D03*
X87086600Y-98428000D03*
%TO.N,GPIO0*%
X93817100Y-59419100D03*
X96631500Y-65327600D03*
%TO.N,SDA*%
X83221300Y-97479900D03*
X94403200Y-53459600D03*
%TO.N,SCL*%
X94400600Y-51717200D03*
X81992000Y-98983400D03*
%TO.N,Net-(U5-PROG)*%
X95871200Y-85331300D03*
X104976500Y-71244200D03*
%TO.N,Net-(U2-V3)*%
X100229000Y-83633200D03*
X99937200Y-76683600D03*
X105115000Y-76361900D03*
%TD*%
D34*
%TO.N,GND*%
X102695300Y-58741300D02*
X99430700Y-62005900D01*
X80992000Y-95986500D02*
X80274700Y-95269200D01*
X90771000Y-94169900D02*
X91880000Y-93060900D01*
X82623700Y-74539000D02*
X82623700Y-70612000D01*
X92873600Y-83754000D02*
X92467000Y-83754000D01*
X82668700Y-96621400D02*
X89242600Y-96621400D01*
X97950000Y-96554000D02*
X97950000Y-95427300D01*
X106123000Y-85344000D02*
X106123000Y-82804000D01*
X94880000Y-92822800D02*
X94880000Y-91459000D01*
X92638600Y-87564000D02*
X91883500Y-87564000D01*
X89310000Y-92374000D02*
X89310000Y-93750700D01*
X82799600Y-88944100D02*
X83237700Y-88506000D01*
X97842700Y-62005900D02*
X97842700Y-62006000D01*
X82799600Y-88944100D02*
X79747300Y-85891900D01*
X82623700Y-69908700D02*
X82623700Y-68072000D01*
X97950000Y-95427300D02*
X97008300Y-95427300D01*
X106123000Y-87884000D02*
X106123000Y-85344000D01*
X97950000Y-92374000D02*
X97035000Y-91459000D01*
X82668700Y-96163200D02*
X82668700Y-96621400D01*
X82100700Y-75062000D02*
X82623700Y-74539000D01*
X106123000Y-87884000D02*
X106123000Y-90424000D01*
X82492000Y-95986500D02*
X82668700Y-96163200D01*
X106123000Y-95504000D02*
X106123000Y-92964000D01*
X94641900Y-93060900D02*
X91880000Y-93060900D01*
X81617000Y-97099000D02*
X81492000Y-97224000D01*
X81217000Y-68072000D02*
X82623700Y-68072000D01*
X90429000Y-87564000D02*
X91883500Y-87564000D01*
X104971800Y-57404000D02*
X104971800Y-57486100D01*
X80274700Y-95269200D02*
X80274700Y-91469000D01*
X87224000Y-75062000D02*
X86047300Y-75062000D01*
X80924000Y-75062000D02*
X82100700Y-75062000D01*
X106123000Y-90424000D02*
X106123000Y-92964000D01*
X104971800Y-57486100D02*
X103716600Y-58741300D01*
X86047300Y-75062000D02*
X85524300Y-74539000D01*
X93462600Y-84343000D02*
X92873600Y-83754000D01*
X97008300Y-95427300D02*
X94641900Y-93060900D01*
X96266000Y-62006000D02*
X97842700Y-62006000D01*
X82668700Y-96621400D02*
X82668700Y-96974000D01*
X81617000Y-97099000D02*
X80992000Y-96474000D01*
X81492000Y-97224000D02*
X81492000Y-97961500D01*
X81920400Y-70612000D02*
X82623700Y-69908700D01*
X106172000Y-57404000D02*
X104971800Y-57404000D01*
X83237700Y-88506000D02*
X84836000Y-88506000D01*
X94641900Y-93060900D02*
X94880000Y-92822800D01*
X89729200Y-95008100D02*
X89729200Y-94169900D01*
X90225000Y-91459000D02*
X90380000Y-91459000D01*
X106123000Y-98044000D02*
X106123000Y-95504000D01*
X81742000Y-96974000D02*
X82668700Y-96974000D01*
X103247000Y-70104000D02*
X103247000Y-70548400D01*
X93462600Y-84343000D02*
X93462600Y-86740000D01*
X103247000Y-70548400D02*
X105342600Y-72644000D01*
X99594800Y-99325500D02*
X104841500Y-99325500D01*
X106123000Y-82804000D02*
X106123000Y-80264000D01*
X97950000Y-96554000D02*
X97950000Y-97680700D01*
X89310000Y-92374000D02*
X90225000Y-91459000D01*
X79747300Y-85891900D02*
X79747300Y-75062000D01*
X89242600Y-96621400D02*
X89310000Y-96554000D01*
X80924000Y-75062000D02*
X79747300Y-75062000D01*
X89729200Y-94169900D02*
X89310000Y-93750700D01*
X81217000Y-70612000D02*
X81920400Y-70612000D01*
X91747400Y-70411400D02*
X92456000Y-71120000D01*
X105342600Y-72644000D02*
X106123000Y-72644000D01*
X97039000Y-83754000D02*
X94051600Y-83754000D01*
X106123000Y-77724000D02*
X106123000Y-75184000D01*
X81920400Y-70612000D02*
X82623700Y-70612000D01*
X94051600Y-83754000D02*
X93462600Y-84343000D01*
X89310000Y-96554000D02*
X89310000Y-95427300D01*
X104971800Y-57380900D02*
X104971800Y-57404000D01*
X103716600Y-58741300D02*
X102695300Y-58741300D01*
X80274700Y-91469000D02*
X82799600Y-88944100D01*
X97950000Y-97680700D02*
X99594800Y-99325500D01*
X91101400Y-70411400D02*
X91747400Y-70411400D01*
X106123000Y-80264000D02*
X106123000Y-77724000D01*
X81617000Y-97099000D02*
X81742000Y-96974000D01*
X89729200Y-94169900D02*
X90771000Y-94169900D01*
X85524300Y-74539000D02*
X82623700Y-74539000D01*
X91880000Y-93060900D02*
X91880000Y-91459000D01*
X97035000Y-91459000D02*
X96880000Y-91459000D01*
X99430700Y-62005900D02*
X97842700Y-62005900D01*
X104841500Y-99325500D02*
X106123000Y-98044000D01*
X93462600Y-86740000D02*
X92638600Y-87564000D01*
X80992000Y-96474000D02*
X80992000Y-95986500D01*
X90256000Y-87391000D02*
X90429000Y-87564000D01*
X106123000Y-75184000D02*
X106123000Y-72644000D01*
X89310000Y-95427300D02*
X89729200Y-95008100D01*
%TO.N,+3.3V*%
X105156000Y-50353500D02*
X105156000Y-48768000D01*
X81066000Y-62006000D02*
X82642700Y-62006000D01*
X105156000Y-48768000D02*
X105156000Y-47591300D01*
X103173000Y-85344000D02*
X103173000Y-85269900D01*
X103185500Y-52324000D02*
X103247000Y-52385500D01*
X92276100Y-81659700D02*
X93597700Y-81659700D01*
X100052700Y-82149600D02*
X95396400Y-82149600D01*
X102046500Y-44849500D02*
X102046500Y-43180000D01*
X105156000Y-47591300D02*
X104788300Y-47591300D01*
X104788300Y-47591300D02*
X102046500Y-44849500D01*
X103173000Y-85269900D02*
X100052700Y-82149600D01*
X82642700Y-63045000D02*
X82555000Y-63132700D01*
X95396400Y-82149600D02*
X94742000Y-82804000D01*
X103185500Y-52324000D02*
X105156000Y-50353500D01*
X102046500Y-43180000D02*
X102046500Y-40640000D01*
X82642700Y-62006000D02*
X82642700Y-63045000D01*
X93597700Y-81659700D02*
X94742000Y-82804000D01*
X103247000Y-52385500D02*
X103247000Y-54864000D01*
%TO.N,+BATT*%
X92988100Y-88514000D02*
X93641200Y-87860900D01*
X102269800Y-88787200D02*
X103173000Y-87884000D01*
X81492000Y-95986500D02*
X81492000Y-94581600D01*
X80734000Y-92140800D02*
X82368800Y-90506000D01*
X82368800Y-90506000D02*
X84836000Y-90506000D01*
X83475400Y-80843700D02*
X87955700Y-80843700D01*
X83126000Y-83094200D02*
X83126000Y-81193100D01*
X81492000Y-95986500D02*
X81992000Y-95986500D01*
X87955700Y-80843700D02*
X88900000Y-81788000D01*
X102269800Y-92060800D02*
X102269800Y-88787200D01*
X89222700Y-87402700D02*
X90334000Y-88514000D01*
X80734000Y-93823600D02*
X80734000Y-92140800D01*
X81492000Y-94581600D02*
X80734000Y-93823600D01*
X89222700Y-82110700D02*
X89222700Y-87402700D01*
X90334000Y-88514000D02*
X91883500Y-88514000D01*
X93641200Y-87860900D02*
X101343500Y-87860900D01*
X88900000Y-81788000D02*
X89222700Y-82110700D01*
X87913600Y-89007800D02*
X87913600Y-87881800D01*
X103173000Y-92964000D02*
X102269800Y-92060800D01*
X83126000Y-81193100D02*
X83475400Y-80843700D01*
X87913600Y-87881800D02*
X83126000Y-83094200D01*
X84836000Y-90506000D02*
X86415400Y-90506000D01*
X91883500Y-88514000D02*
X92988100Y-88514000D01*
X101343500Y-87860900D02*
X102269800Y-88787200D01*
X86415400Y-90506000D02*
X87913600Y-89007800D01*
%TO.N,Net-(U3-GPIO12)*%
X81066000Y-58006000D02*
X82642700Y-58006000D01*
X82642700Y-58006000D02*
X84839300Y-60202600D01*
X87947000Y-70612000D02*
X86540300Y-70612000D01*
X84839300Y-60202600D02*
X84839300Y-68911000D01*
X84839300Y-68911000D02*
X86540300Y-70612000D01*
%TO.N,RST*%
X81066000Y-48006000D02*
X82642700Y-48006000D01*
X98091400Y-59179300D02*
X101136700Y-56134000D01*
X94543900Y-64968600D02*
X94543900Y-59489600D01*
X91117100Y-74299500D02*
X93492600Y-74299500D01*
X93782300Y-70785200D02*
X92759200Y-69762100D01*
X100294700Y-77427100D02*
X99033500Y-77427100D01*
X94854200Y-59179300D02*
X98091400Y-59179300D01*
X91117100Y-75565000D02*
X91117100Y-74299500D01*
X101136700Y-56134000D02*
X104902000Y-56134000D01*
X91496700Y-69460200D02*
X91496700Y-67944800D01*
X93492600Y-74299500D02*
X93782300Y-74009800D01*
X103247000Y-65024000D02*
X101125200Y-67145800D01*
X87224000Y-78862000D02*
X88400700Y-78862000D01*
X91798600Y-69762100D02*
X91496700Y-69460200D01*
X101125200Y-76596600D02*
X100315400Y-77406400D01*
X82642700Y-48006000D02*
X90427900Y-55791200D01*
X91496700Y-67944800D02*
X93015000Y-66426500D01*
X80924000Y-78862000D02*
X87224000Y-78862000D01*
X93770500Y-75565000D02*
X91117100Y-75565000D01*
X94543900Y-59489600D02*
X94854200Y-59179300D01*
X101125200Y-67145800D02*
X101125200Y-76596600D01*
X88400700Y-78862000D02*
X88400700Y-78281400D01*
X93086000Y-66426500D02*
X94543900Y-64968600D01*
X104902000Y-56134000D02*
X106172000Y-54864000D01*
X93782300Y-74009800D02*
X93782300Y-70785200D01*
X93015000Y-66426500D02*
X93086000Y-66426500D01*
X90427900Y-55791200D02*
X90427900Y-56525200D01*
X95040400Y-76834900D02*
X93770500Y-75565000D01*
X90427900Y-56525200D02*
X88839300Y-58113800D01*
X92759200Y-69762100D02*
X91798600Y-69762100D01*
X88400700Y-78281400D02*
X91117100Y-75565000D01*
X100315400Y-77406400D02*
X103173000Y-80264000D01*
X88839300Y-58113800D02*
X88839300Y-65471300D01*
X99033500Y-77427100D02*
X98441300Y-76834900D01*
X89458900Y-72641300D02*
X91117100Y-74299500D01*
X89458900Y-66090900D02*
X89458900Y-72641300D01*
X98441300Y-76834900D02*
X95040400Y-76834900D01*
X100315400Y-77406400D02*
X100294700Y-77427100D01*
X88839300Y-65471300D02*
X89458900Y-66090900D01*
%TO.N,VBUS*%
X104103300Y-78629300D02*
X104103300Y-86230500D01*
X96080000Y-90407300D02*
X96080000Y-89290500D01*
X104103300Y-93871500D02*
X104103300Y-91354300D01*
X103173000Y-94969600D02*
X103089100Y-94885700D01*
X98610700Y-90407300D02*
X96080000Y-90407300D01*
X93681300Y-88514000D02*
X95303500Y-88514000D01*
X103198000Y-77724000D02*
X104103300Y-78629300D01*
X87950000Y-83663000D02*
X85821000Y-83663000D01*
X104075700Y-86969900D02*
X104075700Y-89521300D01*
X103719800Y-86614000D02*
X104075700Y-86969900D01*
X97039000Y-84704000D02*
X98059000Y-84704000D01*
X85598000Y-94361500D02*
X85598000Y-95628000D01*
X96080000Y-89290500D02*
X95303500Y-88514000D01*
X103089100Y-94885700D02*
X104103300Y-93871500D01*
X91180000Y-91459000D02*
X91180000Y-90407300D01*
X99833000Y-86614000D02*
X103719800Y-86614000D01*
X97427400Y-82804000D02*
X98059000Y-83435600D01*
X91953900Y-89177900D02*
X93017400Y-89177900D01*
X96080000Y-91459000D02*
X96080000Y-90407300D01*
X104103300Y-86230500D02*
X103719800Y-86614000D01*
X89552200Y-90407300D02*
X88614700Y-89469800D01*
X91180000Y-90407300D02*
X91180000Y-89951800D01*
X88614700Y-89469800D02*
X88614700Y-84327700D01*
X98059000Y-84704000D02*
X98059000Y-84840000D01*
X103089100Y-94885700D02*
X98610700Y-90407300D01*
X104075700Y-89521300D02*
X103173000Y-90424000D01*
X98059000Y-83435600D02*
X98059000Y-84704000D01*
X85821000Y-83663000D02*
X83946000Y-81788000D01*
X91180000Y-89951800D02*
X91953900Y-89177900D01*
X104103300Y-91354300D02*
X103173000Y-90424000D01*
X93017400Y-89177900D02*
X93681300Y-88514000D01*
X88614700Y-84327700D02*
X87950000Y-83663000D01*
X103173000Y-95504000D02*
X103173000Y-94969600D01*
X98059000Y-84840000D02*
X99833000Y-86614000D01*
X97039000Y-82804000D02*
X97427400Y-82804000D01*
X91180000Y-90407300D02*
X89552200Y-90407300D01*
X89552200Y-90407300D02*
X85598000Y-94361500D01*
%TO.N,Net-(U3-GPIO14)*%
X87947000Y-68072000D02*
X86540300Y-68072000D01*
X86540300Y-59903600D02*
X82642700Y-56006000D01*
X81066000Y-56006000D02*
X82642700Y-56006000D01*
X86540300Y-68072000D02*
X86540300Y-59903600D01*
%TO.N,Net-(U3-GPIO2)*%
X99121500Y-56727200D02*
X99121500Y-43180000D01*
X96266000Y-58006000D02*
X97842700Y-58006000D01*
X97842700Y-58006000D02*
X99121500Y-56727200D01*
%TO.N,Net-(J2-CC2)*%
X98485200Y-94589000D02*
X96867100Y-94589000D01*
X96867100Y-94589000D02*
X95380000Y-93101900D01*
X103749500Y-96774000D02*
X100670200Y-96774000D01*
X103198000Y-75472500D02*
X104582600Y-76857100D01*
X103198000Y-75184000D02*
X103198000Y-75472500D01*
X95380000Y-93101900D02*
X95380000Y-91459000D01*
X104582600Y-76857100D02*
X104582600Y-95940900D01*
X104582600Y-95940900D02*
X103749500Y-96774000D01*
X100670200Y-96774000D02*
X98485200Y-94589000D01*
%TO.N,Net-(U2-UD+)*%
X94380000Y-89571300D02*
X94477900Y-89473400D01*
X92866600Y-76200000D02*
X95563600Y-78897000D01*
X93380000Y-91459000D02*
X93380000Y-92510700D01*
X95563600Y-78897000D02*
X95563600Y-79067100D01*
X94380000Y-92510700D02*
X93380000Y-92510700D01*
X94380000Y-91459000D02*
X94380000Y-92510700D01*
X92456000Y-76200000D02*
X92866600Y-76200000D01*
X94380000Y-91459000D02*
X94380000Y-89571300D01*
%TO.N,Net-(U2-UD-)*%
X92880000Y-91459000D02*
X92880000Y-90407300D01*
X92837000Y-77470000D02*
X94588900Y-79221900D01*
X92956800Y-90330500D02*
X92880000Y-90407300D01*
X92456000Y-77470000D02*
X92837000Y-77470000D01*
X93475600Y-90330500D02*
X93475600Y-89796200D01*
X94588900Y-79221900D02*
X94588900Y-80245000D01*
X93880000Y-90407300D02*
X93803200Y-90330500D01*
X93475600Y-90330500D02*
X92956800Y-90330500D01*
X93803200Y-90330500D02*
X93475600Y-90330500D01*
X93880000Y-91459000D02*
X93880000Y-90407300D01*
%TO.N,Net-(J2-CC1)*%
X92380000Y-90407300D02*
X92350900Y-90407300D01*
X92350900Y-90407300D02*
X92075700Y-90132100D01*
X92380000Y-91459000D02*
X92380000Y-90407300D01*
X104400600Y-73846600D02*
X104400600Y-75308300D01*
X103198000Y-72644000D02*
X104400600Y-73846600D01*
%TO.N,Net-(Q1-B)*%
X92218700Y-68701500D02*
X97192200Y-63728000D01*
X97192200Y-63728000D02*
X99463000Y-63728000D01*
X99463000Y-63728000D02*
X103247000Y-59944000D01*
X92136000Y-68701500D02*
X92218700Y-68701500D01*
%TO.N,Net-(Q2-B)*%
X103247000Y-62484000D02*
X97029500Y-68701500D01*
X97029500Y-68701500D02*
X96586000Y-68701500D01*
%TO.N,Net-(U3-EN)*%
X106024400Y-52410100D02*
X106110500Y-52324000D01*
X85468700Y-52006000D02*
X89693900Y-56231200D01*
X81066000Y-52006000D02*
X85468700Y-52006000D01*
X104911500Y-52410100D02*
X106024400Y-52410100D01*
%TO.N,Net-(U3-GPIO15)*%
X103247000Y-57404000D02*
X100645000Y-60006000D01*
X100645000Y-60006000D02*
X96266000Y-60006000D01*
%TO.N,Net-(Q1-E)*%
X98154000Y-70166600D02*
X95501100Y-70166600D01*
X105182300Y-63473700D02*
X105182300Y-64921100D01*
X98708300Y-70720900D02*
X98708300Y-72791800D01*
X98154000Y-70166600D02*
X98708300Y-70720900D01*
X106172000Y-62484000D02*
X105182300Y-63473700D01*
X95501100Y-70166600D02*
X94036000Y-68701500D01*
X98708300Y-72791800D02*
X97840100Y-73660000D01*
X97840100Y-73660000D02*
X97406000Y-73660000D01*
X105182300Y-64921100D02*
X104955900Y-65147500D01*
%TO.N,Net-(U3-GPIO16)*%
X104229100Y-64380600D02*
X104229100Y-65498400D01*
X105315900Y-65880100D02*
X106172000Y-65024000D01*
X104455600Y-64154100D02*
X104229100Y-64380600D01*
X104229100Y-65498400D02*
X104610800Y-65880100D01*
X104610800Y-65880100D02*
X105315900Y-65880100D01*
X83258500Y-54006000D02*
X87596700Y-58344200D01*
X81066000Y-54006000D02*
X83258500Y-54006000D01*
%TO.N,CHG*%
X102174400Y-68636600D02*
X103247000Y-67564000D01*
X82642700Y-60687500D02*
X83950300Y-61995100D01*
X92614600Y-85882900D02*
X92614600Y-85607100D01*
X81066000Y-60006000D02*
X82642700Y-60006000D01*
X82642700Y-60006000D02*
X82642700Y-60687500D01*
X91883500Y-86614000D02*
X92614600Y-85882900D01*
%TO.N,Net-(D1-K)*%
X105001400Y-70189500D02*
X105001400Y-68734600D01*
X105001400Y-68734600D02*
X106172000Y-67564000D01*
X85598000Y-98428000D02*
X87086600Y-98428000D01*
%TO.N,GPIO0*%
X96266000Y-56006000D02*
X97842700Y-56006000D01*
X95477700Y-56006000D02*
X94689300Y-56006000D01*
X94689300Y-56006000D02*
X93817100Y-56878200D01*
X95477700Y-56006000D02*
X96266000Y-56006000D01*
X97842700Y-41918800D02*
X99121500Y-40640000D01*
X97842700Y-56006000D02*
X97842700Y-41918800D01*
X97536000Y-66426500D02*
X96631500Y-65522000D01*
X96631500Y-65522000D02*
X96631500Y-65327600D01*
X93817100Y-56878200D02*
X93817100Y-59419100D01*
%TO.N,SDA*%
X94689300Y-54006000D02*
X94689300Y-53745700D01*
X82739700Y-97961500D02*
X83221300Y-97479900D01*
X94689300Y-53745700D02*
X94403200Y-53459600D01*
X82492000Y-97961500D02*
X82739700Y-97961500D01*
X96266000Y-54006000D02*
X94689300Y-54006000D01*
%TO.N,SCL*%
X94400600Y-51717300D02*
X94400600Y-51717200D01*
X96266000Y-52006000D02*
X94689300Y-52006000D01*
X81992000Y-97961500D02*
X81992000Y-98983400D01*
X94689300Y-52006000D02*
X94400600Y-51717300D01*
%TO.N,Net-(U5-PROG)*%
X95871200Y-86046300D02*
X95871200Y-85331300D01*
X106116700Y-70104000D02*
X106172000Y-70104000D01*
X95303500Y-86614000D02*
X95871200Y-86046300D01*
X104976500Y-71244200D02*
X106116700Y-70104000D01*
%TO.N,Net-(Q2-E)*%
X99225900Y-68701500D02*
X99225900Y-73499200D01*
X97795100Y-74930000D02*
X97406000Y-74930000D01*
X99225900Y-73499200D02*
X97795100Y-74930000D01*
X98486000Y-68701500D02*
X99225900Y-68701500D01*
X102689200Y-63754000D02*
X99225900Y-67217300D01*
X99225900Y-67217300D02*
X99225900Y-68701500D01*
X103793200Y-63754000D02*
X102689200Y-63754000D01*
X104216000Y-61900000D02*
X104216000Y-63331200D01*
X104216000Y-63331200D02*
X103793200Y-63754000D01*
X106172000Y-59944000D02*
X104216000Y-61900000D01*
%TO.N,TXD*%
X92021400Y-72390000D02*
X90371600Y-70740200D01*
X92510100Y-52185200D02*
X94689300Y-50006000D01*
X92510100Y-65419300D02*
X92510100Y-52185200D01*
X90371600Y-70740200D02*
X90371600Y-67557800D01*
X90371600Y-67557800D02*
X92510100Y-65419300D01*
X96266000Y-50006000D02*
X94689300Y-50006000D01*
X92456000Y-72390000D02*
X92021400Y-72390000D01*
%TO.N,RXD*%
X90895900Y-51799400D02*
X94689300Y-48006000D01*
X90807800Y-57156200D02*
X90895900Y-57068100D01*
X90895900Y-57068100D02*
X90895900Y-51799400D01*
X90807800Y-64226300D02*
X90807800Y-57156200D01*
X89915300Y-71517300D02*
X89915300Y-65118800D01*
X96266000Y-48006000D02*
X94689300Y-48006000D01*
X92058000Y-73660000D02*
X89915300Y-71517300D01*
X92456000Y-73660000D02*
X92058000Y-73660000D01*
X89915300Y-65118800D02*
X90807800Y-64226300D01*
%TO.N,Net-(D2-K)*%
X80646000Y-81788000D02*
X82092400Y-80341600D01*
X94221900Y-80905600D02*
X94288000Y-80971700D01*
X91493600Y-80905600D02*
X94221900Y-80905600D01*
X91436400Y-84067400D02*
X91436400Y-83663000D01*
X82092400Y-80341600D02*
X90929600Y-80341600D01*
X92010800Y-82804000D02*
X92467000Y-82804000D01*
X89850000Y-83663000D02*
X91436400Y-83663000D01*
X91436400Y-83663000D02*
X91436400Y-83378400D01*
X94288000Y-80971700D02*
X101340700Y-80971700D01*
X92073000Y-84704000D02*
X91436400Y-84067400D01*
X101340700Y-80971700D02*
X103173000Y-82804000D01*
X90929600Y-80341600D02*
X91493600Y-80905600D01*
X91436400Y-83378400D02*
X92010800Y-82804000D01*
X91493600Y-80905600D02*
X91493600Y-82286800D01*
X92467000Y-84704000D02*
X92073000Y-84704000D01*
X91493600Y-82286800D02*
X92010800Y-82804000D01*
%TO.N,Net-(U2-V3)*%
X105115000Y-96102000D02*
X103173000Y-98044000D01*
X96084400Y-72035100D02*
X96084400Y-74930000D01*
X96084400Y-74930000D02*
X96084400Y-75313900D01*
X96999500Y-71120000D02*
X96084400Y-72035100D01*
X100143200Y-83633200D02*
X100229000Y-83633200D01*
X96084400Y-75313900D02*
X96335500Y-75565000D01*
X97406000Y-71120000D02*
X96999500Y-71120000D01*
X105115000Y-76361900D02*
X105115000Y-96102000D01*
X96335500Y-75565000D02*
X98818600Y-75565000D01*
X96084400Y-74930000D02*
X92456000Y-74930000D01*
X99314000Y-82804000D02*
X100143200Y-83633200D01*
X98818600Y-75565000D02*
X99937200Y-76683600D01*
%TD*%
%TA.AperFunction,Conductor*%
%TO.N,GND*%
G36*
X82420702Y-81000402D02*
G01*
X82476635Y-81042274D01*
X82501052Y-81107738D01*
X82500771Y-81128734D01*
X82500500Y-81131486D01*
X82500500Y-83155809D01*
X82504743Y-83177139D01*
X82504743Y-83177142D01*
X82504744Y-83177142D01*
X82522073Y-83264266D01*
X82522074Y-83264269D01*
X82522073Y-83264269D01*
X82524535Y-83276646D01*
X82524536Y-83276650D01*
X82524537Y-83276651D01*
X82571688Y-83390486D01*
X82581696Y-83405463D01*
X82581697Y-83405464D01*
X82581698Y-83405466D01*
X82640141Y-83492932D01*
X82640144Y-83492936D01*
X82731586Y-83584378D01*
X82731608Y-83584398D01*
X83741029Y-84593819D01*
X83774514Y-84655142D01*
X83769530Y-84724834D01*
X83727658Y-84780767D01*
X83662194Y-84805184D01*
X83653348Y-84805500D01*
X81285998Y-84805500D01*
X81285981Y-84805501D01*
X81183203Y-84816000D01*
X81183200Y-84816001D01*
X81016668Y-84871185D01*
X81016663Y-84871187D01*
X80867342Y-84963289D01*
X80743289Y-85087342D01*
X80651187Y-85236663D01*
X80651185Y-85236668D01*
X80645140Y-85254911D01*
X80596001Y-85403203D01*
X80596001Y-85403204D01*
X80596000Y-85403204D01*
X80585500Y-85505983D01*
X80585500Y-86706001D01*
X80585501Y-86706018D01*
X80596000Y-86808796D01*
X80596001Y-86808799D01*
X80625193Y-86896893D01*
X80651186Y-86975334D01*
X80743288Y-87124656D01*
X80867344Y-87248712D01*
X81016666Y-87340814D01*
X81183203Y-87395999D01*
X81285991Y-87406500D01*
X81847380Y-87406499D01*
X81914417Y-87426183D01*
X81960172Y-87478987D01*
X81970116Y-87548146D01*
X81941091Y-87611702D01*
X81912476Y-87636037D01*
X81867656Y-87663682D01*
X81743684Y-87787654D01*
X81651643Y-87936875D01*
X81651641Y-87936880D01*
X81596494Y-88103302D01*
X81596493Y-88103309D01*
X81586000Y-88206013D01*
X81586000Y-88256000D01*
X84586000Y-88256000D01*
X84586000Y-87506000D01*
X84324763Y-87506000D01*
X84257724Y-87486315D01*
X84211969Y-87433511D01*
X84202025Y-87364353D01*
X84231050Y-87300797D01*
X84259667Y-87276461D01*
X84304656Y-87248712D01*
X84428712Y-87124656D01*
X84520814Y-86975334D01*
X84575999Y-86808797D01*
X84586500Y-86706009D01*
X84586499Y-85738650D01*
X84606183Y-85671612D01*
X84658987Y-85625857D01*
X84728146Y-85615913D01*
X84791702Y-85644938D01*
X84798180Y-85650970D01*
X86441529Y-87294319D01*
X86475014Y-87355642D01*
X86470030Y-87425334D01*
X86428158Y-87481267D01*
X86362694Y-87505684D01*
X86353848Y-87506000D01*
X85086000Y-87506000D01*
X85086000Y-88382000D01*
X85066315Y-88449039D01*
X85013511Y-88494794D01*
X84962000Y-88506000D01*
X84836000Y-88506000D01*
X84836000Y-88632000D01*
X84816315Y-88699039D01*
X84763511Y-88744794D01*
X84712000Y-88756000D01*
X81586001Y-88756000D01*
X81586001Y-88805986D01*
X81596494Y-88908697D01*
X81651641Y-89075119D01*
X81651643Y-89075124D01*
X81743684Y-89224345D01*
X81867654Y-89348315D01*
X81951719Y-89400167D01*
X81998443Y-89452115D01*
X82009666Y-89521078D01*
X81981822Y-89585160D01*
X81951719Y-89611244D01*
X81867347Y-89663285D01*
X81867343Y-89663288D01*
X81743289Y-89787342D01*
X81651187Y-89936663D01*
X81651185Y-89936668D01*
X81644892Y-89955660D01*
X81596001Y-90103203D01*
X81596001Y-90103204D01*
X81596000Y-90103204D01*
X81585500Y-90205983D01*
X81585500Y-90353346D01*
X81565815Y-90420385D01*
X81549181Y-90441027D01*
X80335269Y-91654940D01*
X80248144Y-91742064D01*
X80248138Y-91742072D01*
X80179692Y-91844505D01*
X80179684Y-91844519D01*
X80146347Y-91925007D01*
X80140823Y-91938343D01*
X80132537Y-91958345D01*
X80132535Y-91958353D01*
X80108500Y-92079189D01*
X80108500Y-93885211D01*
X80132535Y-94006044D01*
X80132540Y-94006061D01*
X80179685Y-94119881D01*
X80179690Y-94119890D01*
X80211695Y-94167787D01*
X80211696Y-94167788D01*
X80248141Y-94222333D01*
X80339586Y-94313778D01*
X80339608Y-94313798D01*
X80830181Y-94804371D01*
X80863666Y-94865694D01*
X80866500Y-94892052D01*
X80866500Y-94995895D01*
X80846815Y-95062934D01*
X80794011Y-95108689D01*
X80789953Y-95110456D01*
X80645824Y-95170156D01*
X80528320Y-95260320D01*
X80438156Y-95377824D01*
X80381478Y-95514657D01*
X80381478Y-95514658D01*
X80367000Y-95624622D01*
X80367000Y-95861500D01*
X80742500Y-95861500D01*
X80809539Y-95881185D01*
X80855294Y-95933989D01*
X80866500Y-95985500D01*
X80866500Y-95987500D01*
X80846815Y-96054539D01*
X80794011Y-96100294D01*
X80742500Y-96111500D01*
X80367000Y-96111500D01*
X80367000Y-96348377D01*
X80381478Y-96458341D01*
X80381478Y-96458342D01*
X80438156Y-96595175D01*
X80528320Y-96712679D01*
X80645825Y-96802844D01*
X80781804Y-96859168D01*
X80836208Y-96903009D01*
X80858273Y-96969303D01*
X80840994Y-97037002D01*
X80789857Y-97084613D01*
X80781805Y-97088290D01*
X80645574Y-97144719D01*
X80645571Y-97144720D01*
X80645571Y-97144721D01*
X80527964Y-97234964D01*
X80456818Y-97327684D01*
X80437719Y-97352574D01*
X80380991Y-97489527D01*
X80380990Y-97489529D01*
X80366500Y-97599598D01*
X80366500Y-98323403D01*
X80380988Y-98433463D01*
X80380991Y-98433472D01*
X80437721Y-98570429D01*
X80527964Y-98688036D01*
X80645571Y-98778279D01*
X80782528Y-98835009D01*
X80892599Y-98849500D01*
X80962897Y-98849499D01*
X81029935Y-98869183D01*
X81075691Y-98921986D01*
X81084662Y-98976902D01*
X81086540Y-98976902D01*
X81086540Y-98983397D01*
X81086540Y-98983400D01*
X81106326Y-99171656D01*
X81106327Y-99171659D01*
X81164818Y-99351677D01*
X81164820Y-99351681D01*
X81164821Y-99351684D01*
X81182325Y-99382002D01*
X81198797Y-99449901D01*
X81175944Y-99515928D01*
X81121022Y-99559118D01*
X81074937Y-99568000D01*
X79626000Y-99568000D01*
X79558961Y-99548315D01*
X79513206Y-99495511D01*
X79502000Y-99444000D01*
X79502000Y-82464554D01*
X79521685Y-82397515D01*
X79574489Y-82351760D01*
X79643647Y-82341816D01*
X79707203Y-82370841D01*
X79743705Y-82425548D01*
X79758190Y-82469261D01*
X79758996Y-82471694D01*
X79759001Y-82471705D01*
X79848029Y-82616040D01*
X79848032Y-82616044D01*
X79967955Y-82735967D01*
X79967959Y-82735970D01*
X80112294Y-82824998D01*
X80112297Y-82824999D01*
X80112303Y-82825003D01*
X80273292Y-82878349D01*
X80372655Y-82888500D01*
X80919344Y-82888499D01*
X80919352Y-82888498D01*
X80919355Y-82888498D01*
X80973760Y-82882940D01*
X81018708Y-82878349D01*
X81179697Y-82825003D01*
X81324044Y-82735968D01*
X81443968Y-82616044D01*
X81533003Y-82471697D01*
X81586349Y-82310708D01*
X81596500Y-82211345D01*
X81596499Y-81773450D01*
X81616183Y-81706412D01*
X81632813Y-81685775D01*
X82289688Y-81028901D01*
X82351010Y-80995418D01*
X82420702Y-81000402D01*
G37*
%TD.AperFunction*%
%TA.AperFunction,Conductor*%
G36*
X87336086Y-91526184D02*
G01*
X87381841Y-91578988D01*
X87391785Y-91648146D01*
X87362760Y-91711702D01*
X87356728Y-91718180D01*
X86267930Y-92806979D01*
X85199270Y-93875639D01*
X85199267Y-93875642D01*
X85155704Y-93919204D01*
X85112142Y-93962766D01*
X85083222Y-94006049D01*
X85083221Y-94006050D01*
X85043691Y-94065208D01*
X85043689Y-94065211D01*
X85043688Y-94065214D01*
X85021043Y-94119886D01*
X84996537Y-94179047D01*
X84996535Y-94179053D01*
X84987926Y-94222329D01*
X84987927Y-94222330D01*
X84978401Y-94270229D01*
X84978400Y-94270236D01*
X84972500Y-94299894D01*
X84972500Y-94385465D01*
X84952815Y-94452504D01*
X84900011Y-94498259D01*
X84861102Y-94508823D01*
X84820202Y-94513001D01*
X84820200Y-94513001D01*
X84653668Y-94568185D01*
X84653663Y-94568187D01*
X84504342Y-94660289D01*
X84380289Y-94784342D01*
X84288187Y-94933663D01*
X84288185Y-94933668D01*
X84267565Y-94995895D01*
X84233001Y-95100203D01*
X84233001Y-95100204D01*
X84233000Y-95100204D01*
X84222500Y-95202983D01*
X84222500Y-96053001D01*
X84222501Y-96053019D01*
X84233000Y-96155796D01*
X84233001Y-96155799D01*
X84288185Y-96322331D01*
X84288187Y-96322336D01*
X84304264Y-96348401D01*
X84380288Y-96471656D01*
X84504344Y-96595712D01*
X84653666Y-96687814D01*
X84820203Y-96742999D01*
X84922991Y-96753500D01*
X86273008Y-96753499D01*
X86375797Y-96742999D01*
X86542334Y-96687814D01*
X86691656Y-96595712D01*
X86815712Y-96471656D01*
X86907814Y-96322334D01*
X86962999Y-96155797D01*
X86963029Y-96155504D01*
X88310000Y-96155504D01*
X88310000Y-96304000D01*
X89010000Y-96304000D01*
X89010000Y-96804000D01*
X88310000Y-96804000D01*
X88310000Y-96952495D01*
X88348427Y-97145681D01*
X88348430Y-97145693D01*
X88423807Y-97327671D01*
X88423814Y-97327684D01*
X88533248Y-97491462D01*
X88533251Y-97491466D01*
X88672533Y-97630748D01*
X88672537Y-97630751D01*
X88836315Y-97740185D01*
X88836328Y-97740192D01*
X89018308Y-97815569D01*
X89060000Y-97823862D01*
X89060000Y-97020988D01*
X89069940Y-97038205D01*
X89125795Y-97094060D01*
X89194204Y-97133556D01*
X89270504Y-97154000D01*
X89349496Y-97154000D01*
X89425796Y-97133556D01*
X89494205Y-97094060D01*
X89550060Y-97038205D01*
X89560000Y-97020988D01*
X89560000Y-97823862D01*
X89601690Y-97815569D01*
X89601692Y-97815569D01*
X89783671Y-97740192D01*
X89783684Y-97740185D01*
X89947462Y-97630751D01*
X89947466Y-97630748D01*
X90086748Y-97491466D01*
X90086751Y-97491462D01*
X90196185Y-97327684D01*
X90196192Y-97327671D01*
X90271569Y-97145693D01*
X90271572Y-97145681D01*
X90309999Y-96952495D01*
X90310000Y-96952492D01*
X90310000Y-96804000D01*
X89610000Y-96804000D01*
X89610000Y-96304000D01*
X90310000Y-96304000D01*
X90310000Y-96155508D01*
X90309999Y-96155504D01*
X90271572Y-95962318D01*
X90271569Y-95962306D01*
X90196192Y-95780328D01*
X90196185Y-95780315D01*
X90086751Y-95616537D01*
X90086748Y-95616533D01*
X89947466Y-95477251D01*
X89947462Y-95477248D01*
X89783684Y-95367814D01*
X89783671Y-95367807D01*
X89601691Y-95292429D01*
X89601683Y-95292427D01*
X89560000Y-95284135D01*
X89560000Y-96087011D01*
X89550060Y-96069795D01*
X89494205Y-96013940D01*
X89425796Y-95974444D01*
X89349496Y-95954000D01*
X89270504Y-95954000D01*
X89194204Y-95974444D01*
X89125795Y-96013940D01*
X89069940Y-96069795D01*
X89060000Y-96087011D01*
X89060000Y-95284136D01*
X89059999Y-95284135D01*
X89018316Y-95292427D01*
X89018308Y-95292429D01*
X88836328Y-95367807D01*
X88836315Y-95367814D01*
X88672537Y-95477248D01*
X88672533Y-95477251D01*
X88533251Y-95616533D01*
X88533248Y-95616537D01*
X88423814Y-95780315D01*
X88423807Y-95780328D01*
X88348430Y-95962306D01*
X88348427Y-95962318D01*
X88310000Y-96155504D01*
X86963029Y-96155504D01*
X86973500Y-96053009D01*
X86973499Y-95202992D01*
X86973446Y-95202476D01*
X86962999Y-95100203D01*
X86962998Y-95100200D01*
X86950649Y-95062934D01*
X86907814Y-94933666D01*
X86815712Y-94784344D01*
X86691656Y-94660288D01*
X86542334Y-94568186D01*
X86533042Y-94565107D01*
X86475599Y-94525335D01*
X86448776Y-94460819D01*
X86461091Y-94392043D01*
X86484364Y-94359724D01*
X88098320Y-92745769D01*
X88159642Y-92712285D01*
X88229334Y-92717269D01*
X88285267Y-92759141D01*
X88309684Y-92824605D01*
X88310000Y-92833451D01*
X88310000Y-93022495D01*
X88348427Y-93215681D01*
X88348430Y-93215693D01*
X88423807Y-93397671D01*
X88423814Y-93397684D01*
X88533248Y-93561462D01*
X88533251Y-93561466D01*
X88672533Y-93700748D01*
X88672537Y-93700751D01*
X88836315Y-93810185D01*
X88836328Y-93810192D01*
X89018308Y-93885569D01*
X89060000Y-93893862D01*
X89060000Y-93090988D01*
X89069940Y-93108205D01*
X89125795Y-93164060D01*
X89194204Y-93203556D01*
X89270504Y-93224000D01*
X89349496Y-93224000D01*
X89425796Y-93203556D01*
X89494205Y-93164060D01*
X89550060Y-93108205D01*
X89560000Y-93090988D01*
X89560000Y-93893862D01*
X89601690Y-93885569D01*
X89601692Y-93885569D01*
X89783671Y-93810192D01*
X89783684Y-93810185D01*
X89947462Y-93700751D01*
X89947466Y-93700748D01*
X90086748Y-93561466D01*
X90086751Y-93561462D01*
X90199574Y-93392613D01*
X90201007Y-93393570D01*
X90244198Y-93349580D01*
X90312332Y-93334103D01*
X90378018Y-93357919D01*
X90380089Y-93359697D01*
X90380189Y-93359568D01*
X90386630Y-93364510D01*
X90386635Y-93364515D01*
X90517865Y-93440281D01*
X90664234Y-93479500D01*
X90664236Y-93479500D01*
X90815764Y-93479500D01*
X90815766Y-93479500D01*
X90962135Y-93440281D01*
X91093365Y-93364515D01*
X91200515Y-93257365D01*
X91276281Y-93126135D01*
X91315500Y-92979766D01*
X91315500Y-92828234D01*
X91315500Y-92828229D01*
X91315033Y-92824682D01*
X91315500Y-92821687D01*
X91315500Y-92820107D01*
X91315747Y-92820107D01*
X91325800Y-92755647D01*
X91372181Y-92703392D01*
X91437972Y-92684499D01*
X91527871Y-92684499D01*
X91527872Y-92684499D01*
X91587483Y-92678091D01*
X91587483Y-92678090D01*
X91594096Y-92677380D01*
X91620607Y-92677381D01*
X91682157Y-92683999D01*
X91682172Y-92684000D01*
X91730000Y-92684000D01*
X91730051Y-92683948D01*
X91749685Y-92617084D01*
X91779675Y-92584867D01*
X91780683Y-92584113D01*
X91846140Y-92559692D01*
X91914415Y-92574537D01*
X91929305Y-92584105D01*
X91980312Y-92622288D01*
X92016111Y-92670111D01*
X92030000Y-92684000D01*
X92077819Y-92684000D01*
X92077833Y-92683999D01*
X92114395Y-92680068D01*
X92140905Y-92680068D01*
X92182127Y-92684500D01*
X92577872Y-92684499D01*
X92577873Y-92684498D01*
X92577885Y-92684498D01*
X92616744Y-92680320D01*
X92643252Y-92680320D01*
X92682127Y-92684500D01*
X92692093Y-92684499D01*
X92759131Y-92704179D01*
X92804889Y-92756979D01*
X92806660Y-92761047D01*
X92825685Y-92806979D01*
X92825692Y-92806992D01*
X92894141Y-92909432D01*
X92894144Y-92909436D01*
X92981263Y-92996555D01*
X92981267Y-92996558D01*
X93083707Y-93065007D01*
X93083713Y-93065010D01*
X93083714Y-93065011D01*
X93197548Y-93112163D01*
X93318389Y-93136199D01*
X93318393Y-93136200D01*
X93318394Y-93136200D01*
X94441607Y-93136200D01*
X94441608Y-93136199D01*
X94562452Y-93112163D01*
X94590852Y-93100398D01*
X94660321Y-93092930D01*
X94722801Y-93124205D01*
X94758453Y-93184294D01*
X94759922Y-93190769D01*
X94778535Y-93284344D01*
X94778540Y-93284361D01*
X94825685Y-93398181D01*
X94825688Y-93398186D01*
X94853815Y-93440279D01*
X94853816Y-93440282D01*
X94894138Y-93500628D01*
X94894144Y-93500636D01*
X94985586Y-93592078D01*
X94985608Y-93592098D01*
X96378116Y-94984606D01*
X96378145Y-94984637D01*
X96468364Y-95074856D01*
X96468367Y-95074858D01*
X96519590Y-95109084D01*
X96570814Y-95143312D01*
X96651307Y-95176652D01*
X96684648Y-95190463D01*
X96745071Y-95202481D01*
X96805493Y-95214500D01*
X96805494Y-95214500D01*
X97296995Y-95214500D01*
X97364034Y-95234185D01*
X97409789Y-95286989D01*
X97419733Y-95356147D01*
X97390708Y-95419703D01*
X97365886Y-95441602D01*
X97312537Y-95477248D01*
X97312533Y-95477251D01*
X97173251Y-95616533D01*
X97173248Y-95616537D01*
X97063814Y-95780315D01*
X97063807Y-95780328D01*
X96988430Y-95962306D01*
X96988427Y-95962318D01*
X96950000Y-96155504D01*
X96950000Y-96304000D01*
X97650000Y-96304000D01*
X97650000Y-96804000D01*
X96950000Y-96804000D01*
X96950000Y-96952495D01*
X96988427Y-97145681D01*
X96988430Y-97145693D01*
X97063807Y-97327671D01*
X97063814Y-97327684D01*
X97173248Y-97491462D01*
X97173251Y-97491466D01*
X97312533Y-97630748D01*
X97312537Y-97630751D01*
X97476315Y-97740185D01*
X97476328Y-97740192D01*
X97658308Y-97815569D01*
X97700000Y-97823862D01*
X97700000Y-97020988D01*
X97709940Y-97038205D01*
X97765795Y-97094060D01*
X97834204Y-97133556D01*
X97910504Y-97154000D01*
X97989496Y-97154000D01*
X98065796Y-97133556D01*
X98134205Y-97094060D01*
X98190060Y-97038205D01*
X98200000Y-97020988D01*
X98200000Y-97823862D01*
X98241690Y-97815569D01*
X98241692Y-97815569D01*
X98423671Y-97740192D01*
X98423684Y-97740185D01*
X98587462Y-97630751D01*
X98587466Y-97630748D01*
X98726748Y-97491466D01*
X98726751Y-97491462D01*
X98836185Y-97327684D01*
X98836192Y-97327671D01*
X98911569Y-97145693D01*
X98911572Y-97145681D01*
X98949999Y-96952495D01*
X98950000Y-96952492D01*
X98950000Y-96804000D01*
X98250000Y-96804000D01*
X98250000Y-96304000D01*
X98950000Y-96304000D01*
X98950000Y-96237752D01*
X98969685Y-96170713D01*
X99022489Y-96124958D01*
X99091647Y-96115014D01*
X99155203Y-96144039D01*
X99161674Y-96150064D01*
X99450823Y-96439214D01*
X100271463Y-97259855D01*
X100271467Y-97259858D01*
X100373908Y-97328308D01*
X100373915Y-97328312D01*
X100432482Y-97352571D01*
X100487748Y-97375463D01*
X100507797Y-97379451D01*
X100541396Y-97386134D01*
X100608592Y-97399501D01*
X100608594Y-97399501D01*
X100737921Y-97399501D01*
X100737941Y-97399500D01*
X101973500Y-97399500D01*
X102040539Y-97419185D01*
X102086294Y-97471989D01*
X102097500Y-97523500D01*
X102097500Y-98744001D01*
X102097501Y-98744018D01*
X102108000Y-98846796D01*
X102108001Y-98846799D01*
X102153266Y-98983397D01*
X102163186Y-99013334D01*
X102255096Y-99162345D01*
X102255289Y-99162657D01*
X102379344Y-99286712D01*
X102463243Y-99338461D01*
X102509968Y-99390409D01*
X102521191Y-99459371D01*
X102493347Y-99523454D01*
X102435279Y-99562310D01*
X102398147Y-99568000D01*
X87234266Y-99568000D01*
X87167227Y-99548315D01*
X87121472Y-99495511D01*
X87111528Y-99426353D01*
X87140553Y-99362797D01*
X87199331Y-99325023D01*
X87208479Y-99322711D01*
X87366403Y-99289144D01*
X87539330Y-99212151D01*
X87692471Y-99100888D01*
X87819133Y-98960216D01*
X87913779Y-98796284D01*
X87972274Y-98616256D01*
X87992060Y-98428000D01*
X87972274Y-98239744D01*
X87913779Y-98059716D01*
X87819133Y-97895784D01*
X87692471Y-97755112D01*
X87692470Y-97755111D01*
X87539334Y-97643851D01*
X87539329Y-97643848D01*
X87366407Y-97566857D01*
X87366402Y-97566855D01*
X87220601Y-97535865D01*
X87181246Y-97527500D01*
X86991954Y-97527500D01*
X86865582Y-97554361D01*
X86795915Y-97549045D01*
X86752120Y-97520752D01*
X86691657Y-97460289D01*
X86691656Y-97460288D01*
X86554132Y-97375463D01*
X86542336Y-97368187D01*
X86542331Y-97368185D01*
X86540862Y-97367698D01*
X86375797Y-97313001D01*
X86375795Y-97313000D01*
X86273010Y-97302500D01*
X84922998Y-97302500D01*
X84922981Y-97302501D01*
X84820203Y-97313000D01*
X84820200Y-97313001D01*
X84653668Y-97368185D01*
X84653663Y-97368187D01*
X84504342Y-97460289D01*
X84380287Y-97584344D01*
X84347208Y-97637974D01*
X84295260Y-97684698D01*
X84226297Y-97695919D01*
X84162215Y-97668075D01*
X84123360Y-97610006D01*
X84118349Y-97559920D01*
X84126760Y-97479900D01*
X84106974Y-97291644D01*
X84048479Y-97111616D01*
X83953833Y-96947684D01*
X83827171Y-96807012D01*
X83827170Y-96807011D01*
X83674034Y-96695751D01*
X83674029Y-96695748D01*
X83501107Y-96618757D01*
X83501102Y-96618755D01*
X83355301Y-96587765D01*
X83315946Y-96579400D01*
X83227979Y-96579400D01*
X83160940Y-96559715D01*
X83115185Y-96506911D01*
X83105040Y-96439214D01*
X83116999Y-96348377D01*
X83117000Y-96348363D01*
X83117000Y-96111500D01*
X82741500Y-96111500D01*
X82674461Y-96091815D01*
X82628706Y-96039011D01*
X82617500Y-95987500D01*
X82617500Y-95985500D01*
X82637185Y-95918461D01*
X82689989Y-95872706D01*
X82741500Y-95861500D01*
X83117000Y-95861500D01*
X83117000Y-95624636D01*
X83116999Y-95624622D01*
X83102521Y-95514658D01*
X83102521Y-95514657D01*
X83045843Y-95377824D01*
X82955679Y-95260320D01*
X82838175Y-95170156D01*
X82701341Y-95113478D01*
X82617000Y-95102373D01*
X82617000Y-95132028D01*
X82597315Y-95199067D01*
X82544511Y-95244822D01*
X82475353Y-95254766D01*
X82417534Y-95230419D01*
X82415534Y-95228885D01*
X82374319Y-95172466D01*
X82367000Y-95130494D01*
X82367000Y-95102373D01*
X82282658Y-95113478D01*
X82274806Y-95115582D01*
X82273917Y-95112264D01*
X82219804Y-95117709D01*
X82195129Y-95110364D01*
X82193977Y-95109886D01*
X82139601Y-95066012D01*
X82117576Y-94999704D01*
X82117500Y-94995354D01*
X82117500Y-94519993D01*
X82117499Y-94519989D01*
X82115278Y-94508823D01*
X82093463Y-94399148D01*
X82084682Y-94377951D01*
X82077214Y-94308483D01*
X82108489Y-94246004D01*
X82168577Y-94210351D01*
X82199244Y-94206499D01*
X83886002Y-94206499D01*
X83886008Y-94206499D01*
X83988797Y-94195999D01*
X84155334Y-94140814D01*
X84304656Y-94048712D01*
X84428712Y-93924656D01*
X84520814Y-93775334D01*
X84575999Y-93608797D01*
X84586500Y-93506009D01*
X84586499Y-92305992D01*
X84575999Y-92203203D01*
X84520814Y-92036666D01*
X84428712Y-91887344D01*
X84304656Y-91763288D01*
X84260475Y-91736037D01*
X84213752Y-91684090D01*
X84202529Y-91615127D01*
X84230373Y-91551045D01*
X84288442Y-91512189D01*
X84325569Y-91506499D01*
X87269047Y-91506499D01*
X87336086Y-91526184D01*
G37*
%TD.AperFunction*%
%TA.AperFunction,Conductor*%
G36*
X104457882Y-71980480D02*
G01*
X104503689Y-72013761D01*
X104523770Y-72028351D01*
X104696692Y-72105342D01*
X104696697Y-72105344D01*
X104881854Y-72144700D01*
X104881855Y-72144700D01*
X104936500Y-72144700D01*
X105003539Y-72164385D01*
X105049294Y-72217189D01*
X105060500Y-72268700D01*
X105060500Y-72394000D01*
X105999000Y-72394000D01*
X106066039Y-72413685D01*
X106111794Y-72466489D01*
X106123000Y-72518000D01*
X106123000Y-72644000D01*
X106249000Y-72644000D01*
X106316039Y-72663685D01*
X106361794Y-72716489D01*
X106373000Y-72768000D01*
X106373000Y-97920000D01*
X106353315Y-97987039D01*
X106300511Y-98032794D01*
X106249000Y-98044000D01*
X106123000Y-98044000D01*
X106123000Y-98170000D01*
X106103315Y-98237039D01*
X106050511Y-98282794D01*
X105999000Y-98294000D01*
X105048001Y-98294000D01*
X105048001Y-98743986D01*
X105058494Y-98846697D01*
X105113641Y-99013119D01*
X105113643Y-99013124D01*
X105205684Y-99162345D01*
X105329654Y-99286315D01*
X105414196Y-99338461D01*
X105460920Y-99390409D01*
X105472143Y-99459372D01*
X105444299Y-99523454D01*
X105386231Y-99562310D01*
X105349099Y-99568000D01*
X103947853Y-99568000D01*
X103880814Y-99548315D01*
X103835059Y-99495511D01*
X103825115Y-99426353D01*
X103854140Y-99362797D01*
X103882757Y-99338461D01*
X103898906Y-99328500D01*
X103966656Y-99286712D01*
X104090712Y-99162656D01*
X104182814Y-99013334D01*
X104237999Y-98846797D01*
X104248500Y-98744009D01*
X104248499Y-97904450D01*
X104268183Y-97837412D01*
X104284813Y-97816775D01*
X104836321Y-97265267D01*
X104897642Y-97231784D01*
X104967334Y-97236768D01*
X105023267Y-97278640D01*
X105047684Y-97344104D01*
X105048000Y-97352950D01*
X105048000Y-97794000D01*
X105873000Y-97794000D01*
X105873000Y-76883230D01*
X105889612Y-76821232D01*
X105942179Y-76730184D01*
X106000674Y-76550156D01*
X106020460Y-76361900D01*
X106000674Y-76173644D01*
X105942179Y-75993616D01*
X105889612Y-75902567D01*
X105873000Y-75840568D01*
X105873000Y-72894000D01*
X105060501Y-72894000D01*
X105060501Y-73322134D01*
X105058969Y-73322134D01*
X105044091Y-73384254D01*
X104993666Y-73432618D01*
X104925098Y-73446042D01*
X104860157Y-73420264D01*
X104848842Y-73410250D01*
X104796237Y-73357645D01*
X104796206Y-73357616D01*
X104297318Y-72858728D01*
X104263833Y-72797405D01*
X104260999Y-72771047D01*
X104260999Y-72080800D01*
X104280684Y-72013761D01*
X104333488Y-71968006D01*
X104402646Y-71958062D01*
X104457882Y-71980480D01*
G37*
%TD.AperFunction*%
%TA.AperFunction,Conductor*%
G36*
X99155203Y-91836839D02*
G01*
X99161681Y-91842871D01*
X102061181Y-94742371D01*
X102094666Y-94803694D01*
X102097500Y-94830052D01*
X102097500Y-95441602D01*
X102097501Y-96024500D01*
X102077816Y-96091539D01*
X102025013Y-96137294D01*
X101973501Y-96148500D01*
X100980653Y-96148500D01*
X100913614Y-96128815D01*
X100892972Y-96112181D01*
X98978128Y-94197338D01*
X98978125Y-94197334D01*
X98978125Y-94197335D01*
X98971058Y-94190268D01*
X98971058Y-94190267D01*
X98883933Y-94103142D01*
X98883932Y-94103141D01*
X98883931Y-94103140D01*
X98827170Y-94065214D01*
X98827169Y-94065213D01*
X98781490Y-94034690D01*
X98781486Y-94034688D01*
X98700992Y-94001347D01*
X98667653Y-93987537D01*
X98657627Y-93985543D01*
X98607229Y-93975518D01*
X98568724Y-93967859D01*
X98506813Y-93935475D01*
X98472239Y-93874759D01*
X98475978Y-93804989D01*
X98516844Y-93748317D01*
X98524024Y-93743140D01*
X98587462Y-93700751D01*
X98587466Y-93700748D01*
X98726748Y-93561466D01*
X98726751Y-93561462D01*
X98836185Y-93397684D01*
X98836192Y-93397671D01*
X98911569Y-93215693D01*
X98911572Y-93215681D01*
X98949999Y-93022495D01*
X98950000Y-93022492D01*
X98950000Y-92624000D01*
X98250000Y-92624000D01*
X98250000Y-92124000D01*
X98950000Y-92124000D01*
X98950000Y-91930552D01*
X98969685Y-91863513D01*
X99022489Y-91817758D01*
X99091647Y-91807814D01*
X99155203Y-91836839D01*
G37*
%TD.AperFunction*%
%TA.AperFunction,Conductor*%
G36*
X97073039Y-91478685D02*
G01*
X97118794Y-91531489D01*
X97130000Y-91583000D01*
X97130000Y-92400758D01*
X97110315Y-92467797D01*
X97057511Y-92513552D01*
X96988353Y-92523496D01*
X96924797Y-92494471D01*
X96918319Y-92488439D01*
X96888951Y-92459071D01*
X96855466Y-92397748D01*
X96860450Y-92328056D01*
X96860792Y-92327137D01*
X96874091Y-92291483D01*
X96880500Y-92231873D01*
X96880499Y-91582998D01*
X96900183Y-91515961D01*
X96952987Y-91470206D01*
X97004499Y-91459000D01*
X97006000Y-91459000D01*
X97073039Y-91478685D01*
G37*
%TD.AperFunction*%
%TA.AperFunction,Conductor*%
G36*
X90322539Y-91228685D02*
G01*
X90368294Y-91281489D01*
X90379500Y-91333000D01*
X90379500Y-92231870D01*
X90379501Y-92231876D01*
X90385908Y-92291481D01*
X90399550Y-92328057D01*
X90404533Y-92397749D01*
X90371050Y-92459069D01*
X90341683Y-92488437D01*
X90280360Y-92521923D01*
X90210668Y-92516940D01*
X90154734Y-92475069D01*
X90130316Y-92409605D01*
X90130000Y-92400757D01*
X90130000Y-91709000D01*
X89589769Y-91709000D01*
X89589556Y-91708204D01*
X89550060Y-91639795D01*
X89494205Y-91583940D01*
X89450000Y-91558418D01*
X89450000Y-91445451D01*
X89469685Y-91378412D01*
X89486311Y-91357778D01*
X89598773Y-91245316D01*
X89660094Y-91211834D01*
X89686452Y-91209000D01*
X90255500Y-91209000D01*
X90322539Y-91228685D01*
G37*
%TD.AperFunction*%
%TA.AperFunction,Conductor*%
G36*
X101100087Y-88506085D02*
G01*
X101120729Y-88522719D01*
X101607981Y-89009971D01*
X101641466Y-89071294D01*
X101644300Y-89097652D01*
X101644300Y-92122406D01*
X101668337Y-92243252D01*
X101668338Y-92243254D01*
X101670105Y-92249079D01*
X101668858Y-92249457D01*
X101675605Y-92312249D01*
X101644327Y-92374726D01*
X101584236Y-92410375D01*
X101514411Y-92407877D01*
X101465896Y-92377906D01*
X99100898Y-90012908D01*
X99100878Y-90012886D01*
X99009435Y-89921443D01*
X98988825Y-89907672D01*
X98948159Y-89880500D01*
X98948160Y-89880500D01*
X98948158Y-89880498D01*
X98906990Y-89852990D01*
X98906986Y-89852988D01*
X98879695Y-89841684D01*
X98821514Y-89817585D01*
X98821512Y-89817583D01*
X98793155Y-89805838D01*
X98793153Y-89805837D01*
X98793152Y-89805837D01*
X98732729Y-89793818D01*
X98672310Y-89781800D01*
X98672307Y-89781800D01*
X98672306Y-89781800D01*
X96829500Y-89781800D01*
X96762461Y-89762115D01*
X96716706Y-89709311D01*
X96705500Y-89657800D01*
X96705500Y-89228893D01*
X96705499Y-89228890D01*
X96701883Y-89210710D01*
X96684258Y-89122100D01*
X96690485Y-89052510D01*
X96699752Y-89033771D01*
X96750031Y-88950602D01*
X96797930Y-88796887D01*
X96804000Y-88730091D01*
X96804000Y-88610400D01*
X96823685Y-88543361D01*
X96876489Y-88497606D01*
X96928000Y-88486400D01*
X101033048Y-88486400D01*
X101100087Y-88506085D01*
G37*
%TD.AperFunction*%
%TA.AperFunction,Conductor*%
G36*
X90835130Y-84308185D02*
G01*
X90878771Y-84358549D01*
X90879216Y-84358312D01*
X90880263Y-84360271D01*
X90880885Y-84360989D01*
X90881929Y-84363389D01*
X90882090Y-84363689D01*
X90916314Y-84414907D01*
X90916315Y-84414909D01*
X90950540Y-84466131D01*
X90950541Y-84466132D01*
X90950542Y-84466133D01*
X91037667Y-84553258D01*
X91037668Y-84553258D01*
X91044735Y-84560325D01*
X91044734Y-84560325D01*
X91044738Y-84560328D01*
X91267681Y-84783271D01*
X91301166Y-84844594D01*
X91304000Y-84870952D01*
X91304000Y-84919701D01*
X91306901Y-84956567D01*
X91306902Y-84956573D01*
X91352754Y-85114393D01*
X91352755Y-85114396D01*
X91436232Y-85255550D01*
X91436418Y-85255864D01*
X91436423Y-85255870D01*
X91552629Y-85372076D01*
X91552638Y-85372083D01*
X91654715Y-85432451D01*
X91702398Y-85483520D01*
X91714915Y-85552142D01*
X91709140Y-85607099D01*
X91709140Y-85607100D01*
X91713810Y-85651541D01*
X91701239Y-85720270D01*
X91653506Y-85771293D01*
X91590489Y-85788500D01*
X90992401Y-85788500D01*
X90925617Y-85794568D01*
X90925606Y-85794571D01*
X90771901Y-85842467D01*
X90634108Y-85925766D01*
X90520266Y-86039608D01*
X90436969Y-86177397D01*
X90389069Y-86331116D01*
X90383000Y-86397911D01*
X90383000Y-86830098D01*
X90389068Y-86896882D01*
X90389071Y-86896893D01*
X90437700Y-87052951D01*
X90438851Y-87122811D01*
X90437701Y-87126730D01*
X90389566Y-87281205D01*
X90383500Y-87347956D01*
X90383500Y-87379547D01*
X90363815Y-87446586D01*
X90311011Y-87492341D01*
X90241853Y-87502285D01*
X90178297Y-87473260D01*
X90171819Y-87467228D01*
X89884519Y-87179928D01*
X89851034Y-87118605D01*
X89848200Y-87092247D01*
X89848200Y-85025000D01*
X89867885Y-84957961D01*
X89920689Y-84912206D01*
X89972200Y-84901000D01*
X90065686Y-84901000D01*
X90065694Y-84901000D01*
X90102569Y-84898098D01*
X90102571Y-84898097D01*
X90102573Y-84898097D01*
X90195196Y-84871187D01*
X90260398Y-84852244D01*
X90401865Y-84768581D01*
X90518081Y-84652365D01*
X90601744Y-84510898D01*
X90628922Y-84417351D01*
X90640383Y-84377905D01*
X90677989Y-84319019D01*
X90741462Y-84289813D01*
X90759459Y-84288500D01*
X90768091Y-84288500D01*
X90835130Y-84308185D01*
G37*
%TD.AperFunction*%
%TA.AperFunction,Conductor*%
G36*
X95796647Y-83434308D02*
G01*
X95844373Y-83466319D01*
X95879205Y-83504000D01*
X96144685Y-83504000D01*
X96207806Y-83521268D01*
X96266102Y-83555744D01*
X96307724Y-83567836D01*
X96423926Y-83601597D01*
X96423929Y-83601597D01*
X96423931Y-83601598D01*
X96460806Y-83604500D01*
X96915000Y-83604500D01*
X96982039Y-83624185D01*
X97027794Y-83676989D01*
X97039000Y-83728500D01*
X97039000Y-83779500D01*
X97019315Y-83846539D01*
X96966511Y-83892294D01*
X96915000Y-83903500D01*
X96460798Y-83903500D01*
X96423932Y-83906401D01*
X96423926Y-83906402D01*
X96266106Y-83952254D01*
X96266103Y-83952255D01*
X96207806Y-83986732D01*
X96144685Y-84004000D01*
X95879204Y-84004000D01*
X95844372Y-84041680D01*
X95784411Y-84077546D01*
X95714577Y-84075301D01*
X95665636Y-84045189D01*
X95656370Y-84035923D01*
X95656362Y-84035917D01*
X95514896Y-83952255D01*
X95514893Y-83952254D01*
X95357073Y-83906402D01*
X95357067Y-83906401D01*
X95320201Y-83903500D01*
X95320194Y-83903500D01*
X94163806Y-83903500D01*
X94163798Y-83903500D01*
X94126932Y-83906401D01*
X94126926Y-83906402D01*
X93969106Y-83952254D01*
X93969103Y-83952255D01*
X93827637Y-84035917D01*
X93821469Y-84040702D01*
X93820164Y-84039019D01*
X93768454Y-84067246D01*
X93698763Y-84062251D01*
X93651058Y-84030247D01*
X93626796Y-84004000D01*
X93361315Y-84004000D01*
X93298194Y-83986732D01*
X93239896Y-83952255D01*
X93239893Y-83952254D01*
X93082073Y-83906402D01*
X93082067Y-83906401D01*
X93045201Y-83903500D01*
X93045194Y-83903500D01*
X92591000Y-83903500D01*
X92523961Y-83883815D01*
X92478206Y-83831011D01*
X92467000Y-83779500D01*
X92467000Y-83728500D01*
X92486685Y-83661461D01*
X92539489Y-83615706D01*
X92591000Y-83604500D01*
X93045186Y-83604500D01*
X93045194Y-83604500D01*
X93082069Y-83601598D01*
X93082071Y-83601597D01*
X93082073Y-83601597D01*
X93141340Y-83584378D01*
X93239898Y-83555744D01*
X93298194Y-83521268D01*
X93361315Y-83504000D01*
X93626794Y-83504000D01*
X93651057Y-83477752D01*
X93711018Y-83441885D01*
X93780852Y-83444129D01*
X93820512Y-83468530D01*
X93821469Y-83467298D01*
X93827631Y-83472077D01*
X93827635Y-83472081D01*
X93969102Y-83555744D01*
X94010724Y-83567836D01*
X94126926Y-83601597D01*
X94126929Y-83601597D01*
X94126931Y-83601598D01*
X94163806Y-83604500D01*
X94163814Y-83604500D01*
X95320186Y-83604500D01*
X95320194Y-83604500D01*
X95357069Y-83601598D01*
X95357071Y-83601597D01*
X95357073Y-83601597D01*
X95416340Y-83584378D01*
X95514898Y-83555744D01*
X95656365Y-83472081D01*
X95665633Y-83462813D01*
X95726955Y-83429326D01*
X95796647Y-83434308D01*
G37*
%TD.AperFunction*%
%TA.AperFunction,Conductor*%
G36*
X79707203Y-79710741D02*
G01*
X79713681Y-79716773D01*
X79716455Y-79719547D01*
X79831664Y-79805793D01*
X79831671Y-79805797D01*
X79966517Y-79856091D01*
X79966516Y-79856091D01*
X79973444Y-79856835D01*
X80026127Y-79862500D01*
X81387547Y-79862499D01*
X81454586Y-79882184D01*
X81500341Y-79934987D01*
X81510285Y-80004146D01*
X81481260Y-80067702D01*
X81475228Y-80074180D01*
X80898227Y-80651181D01*
X80836904Y-80684666D01*
X80810546Y-80687500D01*
X80372662Y-80687500D01*
X80372644Y-80687501D01*
X80273292Y-80697650D01*
X80273289Y-80697651D01*
X80112305Y-80750996D01*
X80112294Y-80751001D01*
X79967959Y-80840029D01*
X79967955Y-80840032D01*
X79848032Y-80959955D01*
X79848029Y-80959959D01*
X79759001Y-81104294D01*
X79758996Y-81104305D01*
X79743706Y-81150449D01*
X79703933Y-81207894D01*
X79639417Y-81234717D01*
X79570641Y-81222402D01*
X79519442Y-81174859D01*
X79502000Y-81111445D01*
X79502000Y-79804454D01*
X79521685Y-79737415D01*
X79574489Y-79691660D01*
X79643647Y-79681716D01*
X79707203Y-79710741D01*
G37*
%TD.AperFunction*%
%TA.AperFunction,Conductor*%
G36*
X79669328Y-62985474D02*
G01*
X79708517Y-63000091D01*
X79768127Y-63006500D01*
X81525540Y-63006499D01*
X81592579Y-63026184D01*
X81638334Y-63078987D01*
X81648618Y-63126262D01*
X81648861Y-63126237D01*
X81649092Y-63128444D01*
X81649540Y-63130499D01*
X81649540Y-63132697D01*
X81649540Y-63132700D01*
X81669326Y-63320956D01*
X81669327Y-63320959D01*
X81727818Y-63500977D01*
X81727821Y-63500984D01*
X81822467Y-63664916D01*
X81902679Y-63754000D01*
X81949129Y-63805588D01*
X82102265Y-63916848D01*
X82102270Y-63916851D01*
X82275192Y-63993842D01*
X82275197Y-63993844D01*
X82460354Y-64033200D01*
X82460355Y-64033200D01*
X82541500Y-64033200D01*
X82608539Y-64052885D01*
X82654294Y-64105689D01*
X82665500Y-64157200D01*
X82665500Y-64453869D01*
X82665501Y-64453876D01*
X82671908Y-64513483D01*
X82722202Y-64648328D01*
X82722206Y-64648335D01*
X82808452Y-64763544D01*
X82808455Y-64763547D01*
X82923664Y-64849793D01*
X82923671Y-64849797D01*
X83058517Y-64900091D01*
X83058516Y-64900091D01*
X83065444Y-64900835D01*
X83118127Y-64906500D01*
X84089800Y-64906499D01*
X84156839Y-64926183D01*
X84202594Y-64978987D01*
X84213800Y-65030499D01*
X84213800Y-68972610D01*
X84237835Y-69093446D01*
X84237840Y-69093463D01*
X84249850Y-69122455D01*
X84249851Y-69122457D01*
X84284985Y-69207281D01*
X84284987Y-69207284D01*
X84284988Y-69207286D01*
X84290305Y-69215243D01*
X84317410Y-69255809D01*
X84317412Y-69255811D01*
X84353441Y-69309732D01*
X84353444Y-69309736D01*
X84444886Y-69401178D01*
X84444908Y-69401198D01*
X86051316Y-71007606D01*
X86051345Y-71007637D01*
X86141563Y-71097855D01*
X86141567Y-71097858D01*
X86244007Y-71166307D01*
X86244020Y-71166314D01*
X86298618Y-71188929D01*
X86353022Y-71232770D01*
X86371841Y-71274968D01*
X86372907Y-71279478D01*
X86423202Y-71414328D01*
X86423206Y-71414335D01*
X86509452Y-71529544D01*
X86509455Y-71529547D01*
X86624664Y-71615793D01*
X86624671Y-71615797D01*
X86759517Y-71666091D01*
X86759516Y-71666091D01*
X86766444Y-71666835D01*
X86819127Y-71672500D01*
X88709400Y-71672499D01*
X88776439Y-71692184D01*
X88822194Y-71744987D01*
X88833400Y-71796499D01*
X88833400Y-72702911D01*
X88857435Y-72823744D01*
X88857440Y-72823761D01*
X88904585Y-72937581D01*
X88904587Y-72937584D01*
X88929088Y-72974251D01*
X88929089Y-72974253D01*
X88973041Y-73040033D01*
X89064486Y-73131478D01*
X89064508Y-73131498D01*
X90455281Y-74522271D01*
X90488766Y-74583594D01*
X90491600Y-74609952D01*
X90491600Y-75254547D01*
X90471915Y-75321586D01*
X90455281Y-75342228D01*
X88001969Y-77795540D01*
X88001965Y-77795542D01*
X88001966Y-77795543D01*
X87972325Y-77825183D01*
X87911001Y-77858667D01*
X87884645Y-77861500D01*
X86326129Y-77861500D01*
X86326123Y-77861501D01*
X86266516Y-77867908D01*
X86131671Y-77918202D01*
X86131664Y-77918206D01*
X86016455Y-78004452D01*
X86016452Y-78004455D01*
X85930206Y-78119664D01*
X85930203Y-78119669D01*
X85916715Y-78155834D01*
X85874843Y-78211767D01*
X85809379Y-78236184D01*
X85800533Y-78236500D01*
X82347467Y-78236500D01*
X82280428Y-78216815D01*
X82234673Y-78164011D01*
X82231285Y-78155834D01*
X82217796Y-78119669D01*
X82217793Y-78119664D01*
X82131547Y-78004455D01*
X82131544Y-78004452D01*
X82016335Y-77918206D01*
X82016328Y-77918202D01*
X81881482Y-77867908D01*
X81881483Y-77867908D01*
X81821883Y-77861501D01*
X81821881Y-77861500D01*
X81821873Y-77861500D01*
X81821864Y-77861500D01*
X80026129Y-77861500D01*
X80026123Y-77861501D01*
X79966516Y-77867908D01*
X79831671Y-77918202D01*
X79831664Y-77918206D01*
X79716455Y-78004452D01*
X79713681Y-78007227D01*
X79710237Y-78009107D01*
X79709355Y-78009768D01*
X79709259Y-78009641D01*
X79652358Y-78040712D01*
X79582666Y-78035728D01*
X79526733Y-77993856D01*
X79502316Y-77928392D01*
X79502000Y-77919546D01*
X79502000Y-76003740D01*
X79521685Y-75936701D01*
X79574489Y-75890946D01*
X79643647Y-75881002D01*
X79707203Y-75910027D01*
X79713681Y-75916059D01*
X79716812Y-75919190D01*
X79831906Y-76005350D01*
X79831913Y-76005354D01*
X79966620Y-76055596D01*
X79966627Y-76055598D01*
X80026155Y-76061999D01*
X80026172Y-76062000D01*
X80674000Y-76062000D01*
X81174000Y-76062000D01*
X81821828Y-76062000D01*
X81821844Y-76061999D01*
X81881372Y-76055598D01*
X81881379Y-76055596D01*
X82016086Y-76005354D01*
X82016093Y-76005350D01*
X82131187Y-75919190D01*
X82131190Y-75919187D01*
X82217350Y-75804093D01*
X82217354Y-75804086D01*
X82267596Y-75669379D01*
X82267598Y-75669372D01*
X82273999Y-75609844D01*
X85874000Y-75609844D01*
X85880401Y-75669372D01*
X85880403Y-75669379D01*
X85930645Y-75804086D01*
X85930649Y-75804093D01*
X86016809Y-75919187D01*
X86016812Y-75919190D01*
X86131906Y-76005350D01*
X86131913Y-76005354D01*
X86266620Y-76055596D01*
X86266627Y-76055598D01*
X86326155Y-76061999D01*
X86326172Y-76062000D01*
X86974000Y-76062000D01*
X87474000Y-76062000D01*
X88121828Y-76062000D01*
X88121844Y-76061999D01*
X88181372Y-76055598D01*
X88181379Y-76055596D01*
X88316086Y-76005354D01*
X88316093Y-76005350D01*
X88431187Y-75919190D01*
X88431190Y-75919187D01*
X88517350Y-75804093D01*
X88517354Y-75804086D01*
X88567596Y-75669379D01*
X88567598Y-75669372D01*
X88573999Y-75609844D01*
X88574000Y-75609827D01*
X88574000Y-75312000D01*
X87474000Y-75312000D01*
X87474000Y-76062000D01*
X86974000Y-76062000D01*
X86974000Y-75312000D01*
X85874000Y-75312000D01*
X85874000Y-75609844D01*
X82273999Y-75609844D01*
X82274000Y-75609827D01*
X82274000Y-75312000D01*
X81174000Y-75312000D01*
X81174000Y-76062000D01*
X80674000Y-76062000D01*
X80674000Y-74812000D01*
X81174000Y-74812000D01*
X82274000Y-74812000D01*
X82274000Y-74514172D01*
X82273999Y-74514155D01*
X85874000Y-74514155D01*
X85874000Y-74812000D01*
X86974000Y-74812000D01*
X87474000Y-74812000D01*
X88574000Y-74812000D01*
X88574000Y-74514172D01*
X88573999Y-74514155D01*
X88567598Y-74454627D01*
X88567596Y-74454620D01*
X88517354Y-74319913D01*
X88517350Y-74319906D01*
X88431190Y-74204812D01*
X88431187Y-74204809D01*
X88316093Y-74118649D01*
X88316086Y-74118645D01*
X88181379Y-74068403D01*
X88181372Y-74068401D01*
X88121844Y-74062000D01*
X87474000Y-74062000D01*
X87474000Y-74812000D01*
X86974000Y-74812000D01*
X86974000Y-74062000D01*
X86326155Y-74062000D01*
X86266627Y-74068401D01*
X86266620Y-74068403D01*
X86131913Y-74118645D01*
X86131906Y-74118649D01*
X86016812Y-74204809D01*
X86016809Y-74204812D01*
X85930649Y-74319906D01*
X85930645Y-74319913D01*
X85880403Y-74454620D01*
X85880401Y-74454627D01*
X85874000Y-74514155D01*
X82273999Y-74514155D01*
X82267598Y-74454627D01*
X82267596Y-74454620D01*
X82217354Y-74319913D01*
X82217350Y-74319906D01*
X82131190Y-74204812D01*
X82131187Y-74204809D01*
X82016093Y-74118649D01*
X82016086Y-74118645D01*
X81881379Y-74068403D01*
X81881372Y-74068401D01*
X81821844Y-74062000D01*
X81174000Y-74062000D01*
X81174000Y-74812000D01*
X80674000Y-74812000D01*
X80674000Y-74062000D01*
X80026155Y-74062000D01*
X79966627Y-74068401D01*
X79966620Y-74068403D01*
X79831913Y-74118645D01*
X79831906Y-74118649D01*
X79716812Y-74204809D01*
X79713681Y-74207941D01*
X79709794Y-74210063D01*
X79709712Y-74210125D01*
X79709703Y-74210113D01*
X79652358Y-74241426D01*
X79582666Y-74236442D01*
X79526733Y-74194570D01*
X79502316Y-74129106D01*
X79502000Y-74120260D01*
X79502000Y-71530638D01*
X79521685Y-71463599D01*
X79574489Y-71417844D01*
X79643647Y-71407900D01*
X79707203Y-71436925D01*
X79725267Y-71456327D01*
X79779813Y-71529190D01*
X79894906Y-71615350D01*
X79894913Y-71615354D01*
X80029620Y-71665596D01*
X80029627Y-71665598D01*
X80089155Y-71671999D01*
X80089172Y-71672000D01*
X80967000Y-71672000D01*
X81467000Y-71672000D01*
X82344828Y-71672000D01*
X82344844Y-71671999D01*
X82404372Y-71665598D01*
X82404379Y-71665596D01*
X82539086Y-71615354D01*
X82539093Y-71615350D01*
X82654187Y-71529190D01*
X82654190Y-71529187D01*
X82740350Y-71414093D01*
X82740354Y-71414086D01*
X82790596Y-71279379D01*
X82790598Y-71279372D01*
X82796999Y-71219844D01*
X82797000Y-71219827D01*
X82797000Y-70862000D01*
X81467000Y-70862000D01*
X81467000Y-71672000D01*
X80967000Y-71672000D01*
X80967000Y-70362000D01*
X81467000Y-70362000D01*
X82797000Y-70362000D01*
X82797000Y-70004172D01*
X82796999Y-70004155D01*
X82790598Y-69944627D01*
X82790596Y-69944620D01*
X82740354Y-69809913D01*
X82740350Y-69809906D01*
X82654190Y-69694812D01*
X82654187Y-69694809D01*
X82539093Y-69608649D01*
X82539086Y-69608645D01*
X82404379Y-69558403D01*
X82404372Y-69558401D01*
X82344844Y-69552000D01*
X81467000Y-69552000D01*
X81467000Y-70362000D01*
X80967000Y-70362000D01*
X80967000Y-69552000D01*
X80089155Y-69552000D01*
X80029627Y-69558401D01*
X80029620Y-69558403D01*
X79894913Y-69608645D01*
X79894906Y-69608649D01*
X79779812Y-69694809D01*
X79725266Y-69767673D01*
X79669332Y-69809543D01*
X79599640Y-69814527D01*
X79538318Y-69781041D01*
X79504833Y-69719717D01*
X79502000Y-69693361D01*
X79502000Y-68990638D01*
X79521685Y-68923599D01*
X79574489Y-68877844D01*
X79643647Y-68867900D01*
X79707203Y-68896925D01*
X79725267Y-68916327D01*
X79779813Y-68989190D01*
X79894906Y-69075350D01*
X79894913Y-69075354D01*
X80029620Y-69125596D01*
X80029627Y-69125598D01*
X80089155Y-69131999D01*
X80089172Y-69132000D01*
X80967000Y-69132000D01*
X81467000Y-69132000D01*
X82344828Y-69132000D01*
X82344844Y-69131999D01*
X82404372Y-69125598D01*
X82404379Y-69125596D01*
X82539086Y-69075354D01*
X82539093Y-69075350D01*
X82654187Y-68989190D01*
X82654190Y-68989187D01*
X82740350Y-68874093D01*
X82740354Y-68874086D01*
X82790596Y-68739379D01*
X82790598Y-68739372D01*
X82796999Y-68679844D01*
X82797000Y-68679827D01*
X82797000Y-68322000D01*
X81467000Y-68322000D01*
X81467000Y-69132000D01*
X80967000Y-69132000D01*
X80967000Y-67822000D01*
X81467000Y-67822000D01*
X82797000Y-67822000D01*
X82797000Y-67464172D01*
X82796999Y-67464155D01*
X82790598Y-67404627D01*
X82790596Y-67404620D01*
X82740354Y-67269913D01*
X82740350Y-67269906D01*
X82654190Y-67154812D01*
X82654187Y-67154809D01*
X82539093Y-67068649D01*
X82539086Y-67068645D01*
X82404379Y-67018403D01*
X82404372Y-67018401D01*
X82344844Y-67012000D01*
X81467000Y-67012000D01*
X81467000Y-67822000D01*
X80967000Y-67822000D01*
X80967000Y-67012000D01*
X80089155Y-67012000D01*
X80029627Y-67018401D01*
X80029620Y-67018403D01*
X79894913Y-67068645D01*
X79894906Y-67068649D01*
X79779812Y-67154809D01*
X79725266Y-67227673D01*
X79669332Y-67269543D01*
X79599640Y-67274527D01*
X79538318Y-67241041D01*
X79504833Y-67179717D01*
X79502000Y-67153361D01*
X79502000Y-63101658D01*
X79521685Y-63034619D01*
X79574489Y-62988864D01*
X79643647Y-62978920D01*
X79669328Y-62985474D01*
G37*
%TD.AperFunction*%
%TA.AperFunction,Conductor*%
G36*
X101900461Y-69498990D02*
G01*
X102079754Y-69537100D01*
X102079755Y-69537100D01*
X102086111Y-69538451D01*
X102085464Y-69541493D01*
X102137587Y-69562631D01*
X102177860Y-69619726D01*
X102184500Y-69659758D01*
X102184500Y-69854000D01*
X103123000Y-69854000D01*
X103190039Y-69873685D01*
X103235794Y-69926489D01*
X103247000Y-69978000D01*
X103247000Y-70230000D01*
X103227315Y-70297039D01*
X103174511Y-70342794D01*
X103123000Y-70354000D01*
X102184501Y-70354000D01*
X102184501Y-70778986D01*
X102194994Y-70881697D01*
X102250141Y-71048119D01*
X102250143Y-71048124D01*
X102342184Y-71197345D01*
X102406304Y-71261465D01*
X102439789Y-71322788D01*
X102434805Y-71392480D01*
X102406305Y-71436827D01*
X102292787Y-71550345D01*
X102200687Y-71699663D01*
X102200685Y-71699668D01*
X102172849Y-71783670D01*
X102145501Y-71866203D01*
X102145501Y-71866204D01*
X102145500Y-71866204D01*
X102135001Y-71968982D01*
X102135000Y-71968988D01*
X102135000Y-73319001D01*
X102135001Y-73319018D01*
X102145500Y-73421796D01*
X102145501Y-73421799D01*
X102188087Y-73550314D01*
X102200686Y-73588334D01*
X102258238Y-73681642D01*
X102292789Y-73737657D01*
X102381451Y-73826319D01*
X102414936Y-73887642D01*
X102409952Y-73957334D01*
X102381451Y-74001681D01*
X102292789Y-74090342D01*
X102200687Y-74239663D01*
X102200685Y-74239668D01*
X102198077Y-74247539D01*
X102145501Y-74406203D01*
X102145501Y-74406204D01*
X102145500Y-74406204D01*
X102135000Y-74508983D01*
X102135000Y-75859001D01*
X102135001Y-75859018D01*
X102145500Y-75961796D01*
X102145501Y-75961799D01*
X102200685Y-76128331D01*
X102200687Y-76128336D01*
X102292789Y-76277657D01*
X102381451Y-76366319D01*
X102414936Y-76427642D01*
X102409952Y-76497334D01*
X102381451Y-76541681D01*
X102292789Y-76630342D01*
X102200687Y-76779663D01*
X102200686Y-76779666D01*
X102145501Y-76946203D01*
X102145501Y-76946204D01*
X102145500Y-76946204D01*
X102135000Y-77048983D01*
X102135000Y-78042047D01*
X102115315Y-78109086D01*
X102062511Y-78154841D01*
X101993353Y-78164785D01*
X101929797Y-78135760D01*
X101923319Y-78129728D01*
X101618774Y-77825183D01*
X101287668Y-77494078D01*
X101254185Y-77432757D01*
X101259169Y-77363066D01*
X101287668Y-77318720D01*
X101523929Y-77082460D01*
X101523933Y-77082458D01*
X101611058Y-76995333D01*
X101647201Y-76941242D01*
X101679512Y-76892886D01*
X101719853Y-76795493D01*
X101726663Y-76779052D01*
X101741960Y-76702146D01*
X101745649Y-76683603D01*
X101745649Y-76683600D01*
X101750700Y-76658207D01*
X101750700Y-76534993D01*
X101750700Y-69620284D01*
X101770385Y-69553245D01*
X101823189Y-69507490D01*
X101892347Y-69497546D01*
X101900461Y-69498990D01*
G37*
%TD.AperFunction*%
%TA.AperFunction,Conductor*%
G36*
X102103334Y-59534769D02*
G01*
X102159267Y-59576641D01*
X102183684Y-59642105D01*
X102184000Y-59650951D01*
X102184000Y-60071047D01*
X102164315Y-60138086D01*
X102147681Y-60158728D01*
X99240229Y-63066181D01*
X99178906Y-63099666D01*
X99152548Y-63102500D01*
X97926067Y-63102500D01*
X97859028Y-63082815D01*
X97813273Y-63030011D01*
X97803329Y-62960853D01*
X97832354Y-62897297D01*
X97851756Y-62879233D01*
X97873191Y-62863186D01*
X97959350Y-62748093D01*
X97959354Y-62748086D01*
X98009596Y-62613379D01*
X98009598Y-62613372D01*
X98015999Y-62553844D01*
X98016000Y-62553827D01*
X98016000Y-62256000D01*
X96516000Y-62256000D01*
X96516000Y-63006000D01*
X96738105Y-63006000D01*
X96805144Y-63025685D01*
X96850899Y-63078489D01*
X96860843Y-63147647D01*
X96831818Y-63211203D01*
X96806995Y-63233102D01*
X96793467Y-63242142D01*
X96706342Y-63329267D01*
X95381081Y-64654528D01*
X95319758Y-64688013D01*
X95250066Y-64683029D01*
X95194133Y-64641157D01*
X95169716Y-64575693D01*
X95169400Y-64566847D01*
X95169400Y-63130000D01*
X95189085Y-63062961D01*
X95241889Y-63017206D01*
X95293400Y-63006000D01*
X96016000Y-63006000D01*
X96016000Y-62130000D01*
X96035685Y-62062961D01*
X96088489Y-62017206D01*
X96140000Y-62006000D01*
X96266000Y-62006000D01*
X96266000Y-61880000D01*
X96285685Y-61812961D01*
X96338489Y-61767206D01*
X96390000Y-61756000D01*
X98016000Y-61756000D01*
X98016000Y-61458172D01*
X98015999Y-61458155D01*
X98009598Y-61398627D01*
X98009596Y-61398620D01*
X97959354Y-61263913D01*
X97959350Y-61263906D01*
X97873190Y-61148812D01*
X97873187Y-61148809D01*
X97815438Y-61105578D01*
X97773567Y-61049645D01*
X97768583Y-60979953D01*
X97802069Y-60918630D01*
X97815432Y-60907049D01*
X97873546Y-60863546D01*
X97959796Y-60748331D01*
X97973285Y-60712166D01*
X98015157Y-60656233D01*
X98080621Y-60631816D01*
X98089467Y-60631500D01*
X100706607Y-60631500D01*
X100769404Y-60619009D01*
X100769405Y-60619009D01*
X100797186Y-60613483D01*
X100827452Y-60607463D01*
X100860792Y-60593652D01*
X100941286Y-60560312D01*
X100992509Y-60526084D01*
X101043733Y-60491858D01*
X101130858Y-60404733D01*
X101130858Y-60404731D01*
X101141066Y-60394524D01*
X101141067Y-60394521D01*
X101972320Y-59563269D01*
X102033642Y-59529785D01*
X102103334Y-59534769D01*
G37*
%TD.AperFunction*%
%TA.AperFunction,Conductor*%
G36*
X104969851Y-56760726D02*
G01*
X105030876Y-56766175D01*
X105086063Y-56809026D01*
X105109321Y-56874911D01*
X105109500Y-56881574D01*
X105109500Y-57154000D01*
X106048000Y-57154000D01*
X106115039Y-57173685D01*
X106160794Y-57226489D01*
X106172000Y-57278000D01*
X106172000Y-57530000D01*
X106152315Y-57597039D01*
X106099511Y-57642794D01*
X106048000Y-57654000D01*
X105109501Y-57654000D01*
X105109501Y-58078986D01*
X105119994Y-58181697D01*
X105175141Y-58348119D01*
X105175143Y-58348124D01*
X105267184Y-58497345D01*
X105355804Y-58585965D01*
X105389289Y-58647288D01*
X105384305Y-58716980D01*
X105355805Y-58761327D01*
X105266787Y-58850345D01*
X105174687Y-58999663D01*
X105174685Y-58999668D01*
X105172587Y-59005999D01*
X105119501Y-59166203D01*
X105119501Y-59166204D01*
X105119500Y-59166204D01*
X105109000Y-59268983D01*
X105109000Y-60071046D01*
X105089315Y-60138085D01*
X105072681Y-60158727D01*
X104521680Y-60709727D01*
X104460357Y-60743212D01*
X104390665Y-60738228D01*
X104334732Y-60696356D01*
X104310315Y-60630892D01*
X104309999Y-60622046D01*
X104309999Y-60619018D01*
X104310000Y-60619009D01*
X104309999Y-59268992D01*
X104299499Y-59166203D01*
X104244314Y-58999666D01*
X104152212Y-58850344D01*
X104063549Y-58761681D01*
X104030064Y-58700358D01*
X104035048Y-58630666D01*
X104063549Y-58586319D01*
X104095996Y-58553872D01*
X104152212Y-58497656D01*
X104244314Y-58348334D01*
X104299499Y-58181797D01*
X104310000Y-58079009D01*
X104309999Y-56883499D01*
X104329684Y-56816461D01*
X104382487Y-56770706D01*
X104433999Y-56759500D01*
X104963609Y-56759500D01*
X104969672Y-56758903D01*
X104969851Y-56760726D01*
G37*
%TD.AperFunction*%
%TA.AperFunction,Conductor*%
G36*
X85225287Y-52651185D02*
G01*
X85245929Y-52667819D01*
X88754938Y-56176828D01*
X88788423Y-56238151D01*
X88790578Y-56251547D01*
X88795911Y-56302286D01*
X88808226Y-56419456D01*
X88808227Y-56419459D01*
X88866718Y-56599477D01*
X88866721Y-56599484D01*
X88961367Y-56763416D01*
X88975566Y-56779185D01*
X89045485Y-56856839D01*
X89075715Y-56919831D01*
X89067090Y-56989166D01*
X89041016Y-57027492D01*
X88704128Y-57364381D01*
X88440569Y-57627940D01*
X88440567Y-57627942D01*
X88425715Y-57642794D01*
X88387179Y-57681329D01*
X88325855Y-57714813D01*
X88256163Y-57709827D01*
X88207347Y-57676616D01*
X88202573Y-57671314D01*
X88202569Y-57671310D01*
X88049434Y-57560051D01*
X88049429Y-57560048D01*
X87876507Y-57483057D01*
X87876502Y-57483055D01*
X87728927Y-57451688D01*
X87691346Y-57443700D01*
X87691345Y-57443700D01*
X87632152Y-57443700D01*
X87565113Y-57424015D01*
X87544471Y-57407381D01*
X83748698Y-53611608D01*
X83748678Y-53611586D01*
X83657233Y-53520141D01*
X83606009Y-53485915D01*
X83554786Y-53451688D01*
X83472624Y-53417656D01*
X83472622Y-53417654D01*
X83440955Y-53404538D01*
X83440953Y-53404537D01*
X83440952Y-53404537D01*
X83380529Y-53392518D01*
X83320110Y-53380500D01*
X83320107Y-53380500D01*
X83320106Y-53380500D01*
X82889467Y-53380500D01*
X82822428Y-53360815D01*
X82776673Y-53308011D01*
X82773285Y-53299834D01*
X82759796Y-53263669D01*
X82759793Y-53263664D01*
X82707830Y-53194251D01*
X82673546Y-53148454D01*
X82615854Y-53105265D01*
X82573984Y-53049333D01*
X82569000Y-52979641D01*
X82602485Y-52918318D01*
X82615850Y-52906736D01*
X82673546Y-52863546D01*
X82759796Y-52748331D01*
X82773285Y-52712166D01*
X82815157Y-52656233D01*
X82880621Y-52631816D01*
X82889467Y-52631500D01*
X85158248Y-52631500D01*
X85225287Y-52651185D01*
G37*
%TD.AperFunction*%
%TA.AperFunction,Conductor*%
G36*
X101094922Y-39389685D02*
G01*
X101140677Y-39442489D01*
X101150621Y-39511647D01*
X101133422Y-39559096D01*
X101049189Y-39695659D01*
X101049186Y-39695666D01*
X100994001Y-39862203D01*
X100994001Y-39862204D01*
X100994000Y-39862204D01*
X100983500Y-39964983D01*
X100983500Y-41315001D01*
X100983501Y-41315018D01*
X100994000Y-41417796D01*
X100994001Y-41417799D01*
X101049185Y-41584331D01*
X101049187Y-41584336D01*
X101141289Y-41733657D01*
X101229951Y-41822319D01*
X101263436Y-41883642D01*
X101258452Y-41953334D01*
X101229951Y-41997681D01*
X101141289Y-42086342D01*
X101049187Y-42235663D01*
X101049186Y-42235666D01*
X100994001Y-42402203D01*
X100994001Y-42402204D01*
X100994000Y-42402204D01*
X100983500Y-42504983D01*
X100983500Y-43855001D01*
X100983501Y-43855018D01*
X100994000Y-43957796D01*
X100994001Y-43957799D01*
X101049185Y-44124331D01*
X101049187Y-44124336D01*
X101066043Y-44151664D01*
X101141288Y-44273656D01*
X101265344Y-44397712D01*
X101362097Y-44457389D01*
X101408821Y-44509335D01*
X101421000Y-44562927D01*
X101421000Y-44911110D01*
X101445035Y-45031944D01*
X101445038Y-45031954D01*
X101458847Y-45065292D01*
X101458847Y-45065293D01*
X101492185Y-45145780D01*
X101492190Y-45145789D01*
X101526414Y-45197007D01*
X101526415Y-45197009D01*
X101560641Y-45248233D01*
X101652086Y-45339678D01*
X101652108Y-45339698D01*
X103841024Y-47528614D01*
X103874509Y-47589937D01*
X103869525Y-47659629D01*
X103862225Y-47675612D01*
X103811908Y-47810517D01*
X103805501Y-47870116D01*
X103805501Y-47870123D01*
X103805500Y-47870135D01*
X103805500Y-49665870D01*
X103805501Y-49665876D01*
X103811908Y-49725483D01*
X103862202Y-49860328D01*
X103862206Y-49860335D01*
X103948452Y-49975544D01*
X103948455Y-49975547D01*
X104063664Y-50061793D01*
X104063671Y-50061797D01*
X104108618Y-50078561D01*
X104198517Y-50112091D01*
X104224618Y-50114897D01*
X104289166Y-50141634D01*
X104329014Y-50199027D01*
X104331508Y-50268852D01*
X104299041Y-50325867D01*
X103706172Y-50918736D01*
X103644849Y-50952221D01*
X103605888Y-50954413D01*
X103548010Y-50948500D01*
X102822998Y-50948500D01*
X102822980Y-50948501D01*
X102720203Y-50959000D01*
X102720200Y-50959001D01*
X102553668Y-51014185D01*
X102553663Y-51014187D01*
X102404342Y-51106289D01*
X102280289Y-51230342D01*
X102188187Y-51379663D01*
X102188185Y-51379668D01*
X102162187Y-51458127D01*
X102133001Y-51546203D01*
X102133001Y-51546204D01*
X102133000Y-51546204D01*
X102122500Y-51648983D01*
X102122500Y-52999001D01*
X102122501Y-52999018D01*
X102133000Y-53101796D01*
X102133001Y-53101799D01*
X102188185Y-53268331D01*
X102188187Y-53268336D01*
X102198827Y-53285586D01*
X102280287Y-53417655D01*
X102280289Y-53417657D01*
X102399700Y-53537068D01*
X102433185Y-53598391D01*
X102428201Y-53668083D01*
X102399702Y-53712429D01*
X102341788Y-53770344D01*
X102249687Y-53919663D01*
X102249686Y-53919666D01*
X102194501Y-54086203D01*
X102194501Y-54086204D01*
X102194500Y-54086204D01*
X102184000Y-54188983D01*
X102184000Y-54188996D01*
X102184001Y-55384500D01*
X102164316Y-55451539D01*
X102111513Y-55497294D01*
X102060001Y-55508500D01*
X101204441Y-55508500D01*
X101204421Y-55508499D01*
X101198307Y-55508499D01*
X101075094Y-55508499D01*
X100974297Y-55528548D01*
X100974292Y-55528548D01*
X100954249Y-55532536D01*
X100954247Y-55532536D01*
X100907097Y-55552067D01*
X100840419Y-55579685D01*
X100840417Y-55579686D01*
X100737966Y-55648141D01*
X100737963Y-55648144D01*
X99958681Y-56427427D01*
X99897358Y-56460912D01*
X99827666Y-56455928D01*
X99771733Y-56414056D01*
X99747316Y-56348592D01*
X99747000Y-56339746D01*
X99747000Y-44562927D01*
X99766685Y-44495888D01*
X99805901Y-44457390D01*
X99902656Y-44397712D01*
X100026712Y-44273656D01*
X100118814Y-44124334D01*
X100173999Y-43957797D01*
X100184500Y-43855009D01*
X100184499Y-42504992D01*
X100173999Y-42402203D01*
X100118814Y-42235666D01*
X100026712Y-42086344D01*
X99938049Y-41997681D01*
X99904564Y-41936358D01*
X99909548Y-41866666D01*
X99938049Y-41822319D01*
X100026712Y-41733656D01*
X100118814Y-41584334D01*
X100173999Y-41417797D01*
X100184500Y-41315009D01*
X100184499Y-39964992D01*
X100173999Y-39862203D01*
X100118814Y-39695666D01*
X100118810Y-39695659D01*
X100034578Y-39559096D01*
X100016138Y-39491704D01*
X100037061Y-39425040D01*
X100090703Y-39380271D01*
X100140117Y-39370000D01*
X101027883Y-39370000D01*
X101094922Y-39389685D01*
G37*
%TD.AperFunction*%
%TA.AperFunction,Conductor*%
G36*
X80489039Y-39389685D02*
G01*
X80534794Y-39442489D01*
X80546000Y-39494000D01*
X80546000Y-46706000D01*
X96786000Y-46706000D01*
X96786000Y-39494000D01*
X96805685Y-39426961D01*
X96858489Y-39381206D01*
X96910000Y-39370000D01*
X98102883Y-39370000D01*
X98169922Y-39389685D01*
X98215677Y-39442489D01*
X98225621Y-39511647D01*
X98208422Y-39559096D01*
X98124189Y-39695659D01*
X98124186Y-39695666D01*
X98069001Y-39862203D01*
X98069001Y-39862204D01*
X98069000Y-39862204D01*
X98058500Y-39964983D01*
X98058500Y-40767047D01*
X98038815Y-40834086D01*
X98022181Y-40854728D01*
X97356844Y-41520064D01*
X97356838Y-41520072D01*
X97288392Y-41622505D01*
X97288384Y-41622519D01*
X97255047Y-41703007D01*
X97249523Y-41716343D01*
X97241237Y-41736345D01*
X97241235Y-41736353D01*
X97217200Y-41857189D01*
X97217200Y-46881500D01*
X97197515Y-46948539D01*
X97144711Y-46994294D01*
X97093200Y-47005500D01*
X94968129Y-47005500D01*
X94968123Y-47005501D01*
X94908516Y-47011908D01*
X94773671Y-47062202D01*
X94773664Y-47062206D01*
X94658455Y-47148452D01*
X94658452Y-47148455D01*
X94572206Y-47263664D01*
X94572202Y-47263671D01*
X94540867Y-47347686D01*
X94498996Y-47403620D01*
X94472140Y-47418913D01*
X94460081Y-47423908D01*
X94460079Y-47423909D01*
X94393021Y-47451684D01*
X94393008Y-47451691D01*
X94290567Y-47520141D01*
X94290563Y-47520144D01*
X90497169Y-51313540D01*
X90410041Y-51400667D01*
X90401850Y-51412927D01*
X90396447Y-51421014D01*
X90341588Y-51503113D01*
X90341588Y-51503114D01*
X90322600Y-51548956D01*
X90294438Y-51616944D01*
X90294435Y-51616956D01*
X90270400Y-51737789D01*
X90270400Y-54449747D01*
X90250715Y-54516786D01*
X90197911Y-54562541D01*
X90128753Y-54572485D01*
X90065197Y-54543460D01*
X90058719Y-54537428D01*
X83135628Y-47614338D01*
X83135625Y-47614334D01*
X83135625Y-47614335D01*
X83128558Y-47607268D01*
X83128558Y-47607267D01*
X83041433Y-47520142D01*
X83041432Y-47520141D01*
X83041431Y-47520140D01*
X82990209Y-47485915D01*
X82938987Y-47451689D01*
X82938986Y-47451688D01*
X82938983Y-47451686D01*
X82938980Y-47451685D01*
X82859862Y-47418914D01*
X82805458Y-47375073D01*
X82791132Y-47347685D01*
X82759798Y-47263673D01*
X82759793Y-47263664D01*
X82673547Y-47148455D01*
X82673544Y-47148452D01*
X82558335Y-47062206D01*
X82558328Y-47062202D01*
X82423482Y-47011908D01*
X82423483Y-47011908D01*
X82363883Y-47005501D01*
X82363881Y-47005500D01*
X82363873Y-47005500D01*
X82363864Y-47005500D01*
X79768129Y-47005500D01*
X79768123Y-47005501D01*
X79708514Y-47011909D01*
X79669332Y-47026523D01*
X79599640Y-47031507D01*
X79538318Y-46998021D01*
X79504833Y-46936697D01*
X79502000Y-46910341D01*
X79502000Y-39494000D01*
X79521685Y-39426961D01*
X79574489Y-39381206D01*
X79626000Y-39370000D01*
X80422000Y-39370000D01*
X80489039Y-39389685D01*
G37*
%TD.AperFunction*%
%TA.AperFunction,Conductor*%
G36*
X106877039Y-39389685D02*
G01*
X106922794Y-39442489D01*
X106934000Y-39494000D01*
X106934000Y-50910232D01*
X106914315Y-50977271D01*
X106861511Y-51023026D01*
X106792353Y-51032970D01*
X106748892Y-51017216D01*
X106748882Y-51017240D01*
X106748621Y-51017118D01*
X106744904Y-51015771D01*
X106742340Y-51014189D01*
X106742335Y-51014187D01*
X106742334Y-51014186D01*
X106575797Y-50959001D01*
X106575795Y-50959000D01*
X106473010Y-50948500D01*
X106473009Y-50948500D01*
X106472779Y-50948500D01*
X105744835Y-50948501D01*
X105744835Y-50947478D01*
X105680962Y-50932192D01*
X105632589Y-50881775D01*
X105619153Y-50813209D01*
X105639526Y-50755722D01*
X105641855Y-50752235D01*
X105641858Y-50752233D01*
X105710311Y-50649786D01*
X105710312Y-50649785D01*
X105710313Y-50649782D01*
X105710315Y-50649779D01*
X105720672Y-50624772D01*
X105757463Y-50535951D01*
X105781500Y-50415107D01*
X105781500Y-50291893D01*
X105781500Y-50242499D01*
X105801185Y-50175460D01*
X105853989Y-50129705D01*
X105905500Y-50118499D01*
X106053871Y-50118499D01*
X106053872Y-50118499D01*
X106113483Y-50112091D01*
X106248331Y-50061796D01*
X106363546Y-49975546D01*
X106449796Y-49860331D01*
X106500091Y-49725483D01*
X106506500Y-49665873D01*
X106506499Y-47870128D01*
X106500091Y-47810517D01*
X106449796Y-47675669D01*
X106449795Y-47675668D01*
X106449793Y-47675664D01*
X106363547Y-47560455D01*
X106363544Y-47560452D01*
X106248335Y-47474206D01*
X106248328Y-47474202D01*
X106116401Y-47424997D01*
X106060467Y-47383126D01*
X106036050Y-47317662D01*
X106050902Y-47249389D01*
X106072053Y-47221133D01*
X106194108Y-47099078D01*
X106329600Y-46905578D01*
X106429429Y-46691492D01*
X106429432Y-46691486D01*
X106486636Y-46478000D01*
X105589012Y-46478000D01*
X105621925Y-46420993D01*
X105656000Y-46293826D01*
X105656000Y-46162174D01*
X105621925Y-46035007D01*
X105589012Y-45978000D01*
X106486636Y-45978000D01*
X106486635Y-45977999D01*
X106429432Y-45764513D01*
X106429429Y-45764507D01*
X106329600Y-45550422D01*
X106329599Y-45550420D01*
X106194113Y-45356926D01*
X106194108Y-45356920D01*
X106027078Y-45189890D01*
X105841405Y-45059879D01*
X105797780Y-45005302D01*
X105790588Y-44935804D01*
X105822110Y-44873449D01*
X105841406Y-44856730D01*
X106027401Y-44726495D01*
X106194495Y-44559401D01*
X106330035Y-44365830D01*
X106429903Y-44151663D01*
X106491063Y-43923408D01*
X106511659Y-43688000D01*
X106491063Y-43452592D01*
X106429903Y-43224337D01*
X106330035Y-43010171D01*
X106194495Y-42816599D01*
X106194494Y-42816597D01*
X106027402Y-42649506D01*
X106027396Y-42649501D01*
X105841842Y-42519575D01*
X105798217Y-42464998D01*
X105791023Y-42395500D01*
X105822546Y-42333145D01*
X105841842Y-42316425D01*
X105864026Y-42300891D01*
X106027401Y-42186495D01*
X106194495Y-42019401D01*
X106330035Y-41825830D01*
X106429903Y-41611663D01*
X106491063Y-41383408D01*
X106511659Y-41148000D01*
X106491063Y-40912592D01*
X106429903Y-40684337D01*
X106330035Y-40470171D01*
X106194495Y-40276599D01*
X106194494Y-40276597D01*
X106027402Y-40109506D01*
X106027395Y-40109501D01*
X105833834Y-39973967D01*
X105833830Y-39973965D01*
X105814564Y-39964981D01*
X105619663Y-39874097D01*
X105619659Y-39874096D01*
X105619655Y-39874094D01*
X105391413Y-39812938D01*
X105391403Y-39812936D01*
X105156001Y-39792341D01*
X105155999Y-39792341D01*
X104920596Y-39812936D01*
X104920586Y-39812938D01*
X104692344Y-39874094D01*
X104692335Y-39874098D01*
X104478171Y-39973964D01*
X104478169Y-39973965D01*
X104284597Y-40109505D01*
X104117505Y-40276597D01*
X103981965Y-40470169D01*
X103981964Y-40470171D01*
X103882098Y-40684335D01*
X103882094Y-40684344D01*
X103820938Y-40912586D01*
X103820936Y-40912596D01*
X103800341Y-41147999D01*
X103800341Y-41148000D01*
X103820936Y-41383403D01*
X103820938Y-41383413D01*
X103882094Y-41611655D01*
X103882096Y-41611659D01*
X103882097Y-41611663D01*
X103940239Y-41736348D01*
X103981965Y-41825830D01*
X103981967Y-41825834D01*
X104071244Y-41953334D01*
X104102296Y-41997681D01*
X104117501Y-42019395D01*
X104117506Y-42019402D01*
X104284597Y-42186493D01*
X104284603Y-42186498D01*
X104470158Y-42316425D01*
X104513783Y-42371002D01*
X104520977Y-42440500D01*
X104489454Y-42502855D01*
X104470158Y-42519575D01*
X104284597Y-42649505D01*
X104117505Y-42816597D01*
X103981965Y-43010169D01*
X103981964Y-43010171D01*
X103882098Y-43224335D01*
X103882094Y-43224344D01*
X103820938Y-43452586D01*
X103820936Y-43452596D01*
X103800341Y-43687999D01*
X103800341Y-43688000D01*
X103820936Y-43923403D01*
X103820938Y-43923413D01*
X103882094Y-44151655D01*
X103882096Y-44151659D01*
X103882097Y-44151663D01*
X103938984Y-44273657D01*
X103981965Y-44365830D01*
X103981967Y-44365834D01*
X104117501Y-44559395D01*
X104117506Y-44559402D01*
X104284597Y-44726493D01*
X104284603Y-44726498D01*
X104470594Y-44856730D01*
X104514219Y-44911307D01*
X104521413Y-44980805D01*
X104489890Y-45043160D01*
X104470595Y-45059880D01*
X104284922Y-45189890D01*
X104284920Y-45189891D01*
X104117891Y-45356920D01*
X104117886Y-45356926D01*
X103982401Y-45550419D01*
X103945812Y-45628884D01*
X103899639Y-45681323D01*
X103832445Y-45700474D01*
X103765564Y-45680258D01*
X103745749Y-45664159D01*
X102723088Y-44641498D01*
X102689603Y-44580175D01*
X102694587Y-44510483D01*
X102736459Y-44454550D01*
X102745648Y-44448294D01*
X102827656Y-44397712D01*
X102951712Y-44273656D01*
X103043814Y-44124334D01*
X103098999Y-43957797D01*
X103109500Y-43855009D01*
X103109499Y-42504992D01*
X103098999Y-42402203D01*
X103043814Y-42235666D01*
X102951712Y-42086344D01*
X102863049Y-41997681D01*
X102829564Y-41936358D01*
X102834548Y-41866666D01*
X102863049Y-41822319D01*
X102951712Y-41733656D01*
X103043814Y-41584334D01*
X103098999Y-41417797D01*
X103109500Y-41315009D01*
X103109499Y-39964992D01*
X103098999Y-39862203D01*
X103043814Y-39695666D01*
X103043810Y-39695659D01*
X102959578Y-39559096D01*
X102941138Y-39491704D01*
X102962061Y-39425040D01*
X103015703Y-39380271D01*
X103065117Y-39370000D01*
X106810000Y-39370000D01*
X106877039Y-39389685D01*
G37*
%TD.AperFunction*%
%TD*%
%TA.AperFunction,NonConductor*%
G36*
X93682177Y-85222014D02*
G01*
X93706356Y-85249921D01*
X93706639Y-85249702D01*
X93710679Y-85254911D01*
X93711232Y-85255548D01*
X93711419Y-85255865D01*
X93711421Y-85255867D01*
X93711423Y-85255870D01*
X93827629Y-85372076D01*
X93827633Y-85372079D01*
X93827635Y-85372081D01*
X93969102Y-85455744D01*
X93985951Y-85460639D01*
X94126926Y-85501597D01*
X94126929Y-85501597D01*
X94126931Y-85501598D01*
X94163806Y-85504500D01*
X94890543Y-85504500D01*
X94957582Y-85524185D01*
X95003337Y-85576989D01*
X95008474Y-85590182D01*
X95020171Y-85626182D01*
X95022166Y-85696023D01*
X94986085Y-85755856D01*
X94923384Y-85786684D01*
X94902240Y-85788500D01*
X94412401Y-85788500D01*
X94345617Y-85794568D01*
X94345606Y-85794571D01*
X94191901Y-85842467D01*
X94054108Y-85925766D01*
X93940266Y-86039608D01*
X93856969Y-86177397D01*
X93809069Y-86331116D01*
X93803000Y-86397911D01*
X93803000Y-86830098D01*
X93809068Y-86896882D01*
X93809071Y-86896893D01*
X93856967Y-87050599D01*
X93860047Y-87057441D01*
X93857890Y-87058411D01*
X93872779Y-87114807D01*
X93851260Y-87181280D01*
X93797219Y-87225567D01*
X93748826Y-87235400D01*
X93579593Y-87235400D01*
X93558980Y-87239500D01*
X93485186Y-87254178D01*
X93415595Y-87247949D01*
X93360418Y-87205086D01*
X93342611Y-87169451D01*
X93329299Y-87126732D01*
X93328147Y-87056872D01*
X93329299Y-87052951D01*
X93341831Y-87012733D01*
X93377930Y-86896887D01*
X93384000Y-86830091D01*
X93383999Y-86397910D01*
X93383999Y-86397909D01*
X93383999Y-86397901D01*
X93377931Y-86331117D01*
X93377928Y-86331106D01*
X93344477Y-86223755D01*
X93343325Y-86153895D01*
X93355471Y-86124873D01*
X93441779Y-85975384D01*
X93500274Y-85795356D01*
X93520060Y-85607100D01*
X93500274Y-85418844D01*
X93482441Y-85363964D01*
X93480446Y-85294125D01*
X93493646Y-85262517D01*
X93497582Y-85255864D01*
X93497773Y-85255539D01*
X93548847Y-85207861D01*
X93617590Y-85195363D01*
X93682177Y-85222014D01*
G37*
%TD.AperFunction*%
M02*
